<svg width="48" height="49" viewBox="0 0 48 49" fill="none" xmlns="http://www.w3.org/2000/svg">
<path d="M14.2476 25.9245L22.4611 17.7129L30.6727 25.9264L22.4591 34.138L14.2476 25.9245Z" fill="#ECF63D"/>
<path d="M39.9072 6.42285L38.8808 7.44921L40.9335 9.50161L39.9071 10.528L36.8283 7.44921L35.802 8.47558L33.7493 6.42292L27.5918 12.5807L35.802 20.7923L41.9596 14.6332L39.9072 12.5808L42.989 9.50174L39.9072 6.42285Z" fill="#ECF63D"/>
<path d="M22.4604 15.6594L25.5403 12.5801L35.8046 22.8457L32.7247 25.925L22.4604 15.6594Z" fill="#ECF63D"/>
<path d="M12.1948 27.9758L13.2212 26.9492L21.4347 35.1608L20.4084 36.1874L12.1948 27.9758Z" fill="#ECF63D"/>
<path d="M10.1426 30.0305L11.1689 29.0039L19.3825 37.2161L18.3561 38.2428L10.1426 30.0305Z" fill="#ECF63D"/>
<path d="M8.08838 32.083L9.11573 31.0557L17.3273 39.2672L16.2999 40.2946L8.08838 32.083Z" fill="#ECF63D"/>
<path d="M11.1676 39.2682L13.2203 41.3206L14.2464 40.2945L8.08886 34.1367L7.06249 35.1631L9.11515 37.2155L5.00977 41.3206L7.06243 43.3733L11.1676 39.2682Z" fill="#ECF63D"/>
</svg>
