<svg width="48" height="49" viewBox="0 0 48 49" fill="none" xmlns="http://www.w3.org/2000/svg">
<path d="M37.0056 13.1311C32.0727 13.1311 27.1547 10.8206 25.0448 7.51091C24.8173 7.1537 24.4233 6.9375 24 6.9375C23.5767 6.9375 23.1828 7.1537 22.9552 7.51091C20.8452 10.8206 15.9266 13.1311 10.9945 13.1311C10.666 13.1311 10.3508 13.2616 10.1186 13.4938C9.88636 13.7261 9.75586 14.0412 9.75586 14.3697V26.7558C9.75586 35.3369 18.0758 41.4146 23.6998 42.8209C23.8969 42.8704 24.1032 42.8704 24.3003 42.8209C29.9238 41.4151 38.2442 35.3369 38.2442 26.7558V14.3697C38.2442 14.0412 38.1137 13.7261 37.8815 13.4938C37.6492 13.2616 37.334 13.1311 37.0056 13.1311ZM24.0002 33.5682C21.7007 33.5682 19.4953 32.6547 17.8693 31.0287C16.2433 29.4028 15.3299 27.1973 15.3299 24.8979C15.3299 22.5985 16.2433 20.393 17.8693 18.767C19.4953 17.1411 21.7007 16.2276 24.0002 16.2276C26.2996 16.2276 28.505 17.1411 30.131 18.767C31.757 20.393 32.6704 22.5985 32.6704 24.8979C32.6704 27.1973 31.757 29.4028 30.131 31.0287C28.505 32.6547 26.2996 33.5682 24.0002 33.5682ZM28.5916 20.3065C28.8238 20.5388 28.9543 20.8537 28.9543 21.1821C28.9543 21.5106 28.8238 21.8255 28.5916 22.0577L21.1599 29.4894C20.9277 29.7219 20.6128 29.8524 20.2843 29.8524C20.218 29.8521 20.1516 29.8469 20.0861 29.8369C19.6929 29.7733 19.3545 29.5242 19.1765 29.1681L17.9379 26.6909C17.7396 26.295 17.7678 25.8236 18.0117 25.4542C18.2555 25.0848 18.6777 24.8736 19.1195 24.8999C19.5613 24.9264 19.9555 25.1866 20.1535 25.5822L20.6235 26.5231L26.8403 20.3065C27.0726 20.0743 27.3875 19.9438 27.7159 19.9438C28.0444 19.9438 28.3593 20.0743 28.5915 20.3065L28.5916 20.3065Z" fill="#ECF63D"/>
</svg>
