<svg width="48" height="49" viewBox="0 0 48 49" fill="none" xmlns="http://www.w3.org/2000/svg">
<path d="M34.728 14.4417C35.8516 15.0381 36.8748 16.1488 37.3834 17.4467L39.8486 23.7208C39.9131 23.7132 39.9757 23.6983 40.0442 23.6983H41.9374C43.0077 23.6966 43.8778 24.6816 43.8778 25.8998C43.8778 27.1156 43.0077 28.1014 41.9374 28.1014H41.4622C41.4622 28.1049 41.4638 28.1065 41.4638 28.11C41.722 28.8706 41.8662 29.7003 41.8662 30.5709V33.1505C41.8662 35.6729 41.25 37.8504 39.8564 38.9109V41.7447C39.8564 43.1675 38.8376 44.3207 37.5849 44.3207H35.5021C34.2494 44.3207 33.2317 43.1656 33.2317 41.7447V39.5951H14.7741V41.7447C14.7741 43.1675 13.7561 44.3207 12.5026 44.3207H10.4181C9.16436 44.3207 8.14662 43.1656 8.14662 41.7447V38.9109C6.75472 37.8504 6.13854 35.6748 6.13854 33.1505V30.5709C6.13854 29.7023 6.28106 28.8723 6.53658 28.1136C6.53658 28.1101 6.53929 28.1065 6.53929 28.1014H6.06294C4.99102 28.1014 4.12256 27.1156 4.12256 25.9017C4.12256 24.6843 4.99102 23.6982 6.06294 23.6982H7.95532C8.02387 23.6982 8.08727 23.7139 8.15258 23.7207L10.617 17.4482C11.3959 15.467 13.2735 13.9728 14.9843 13.9728H15.8392C15.9581 14.0319 16.0804 14.0853 16.2061 14.133C16.7786 14.35 17.4815 14.5502 18.3166 14.7353C19.0121 14.8946 19.5123 15.045 19.7988 15.1767C19.9253 15.2347 19.9443 15.2615 19.9443 15.329C19.9443 15.3956 19.9307 15.4165 19.8359 15.4656C19.6454 15.5636 19.2964 15.6235 18.8011 15.6235C18.2502 15.6235 17.6874 15.5333 17.1106 15.3512C16.7431 15.2352 16.4061 15.097 16.0988 14.9369C16.0804 14.9271 16.06 14.9163 16.0378 14.9038C16.0129 14.89 15.9874 14.8773 15.9617 14.8656C15.3851 14.6009 14.7107 14.8678 14.4586 15.4504L13.9595 16.6057C13.9528 16.6215 13.9528 16.6215 13.9454 16.6383C13.9322 16.6686 13.9202 16.6992 13.9097 16.7301C13.5062 17.0921 13.1336 17.5834 12.9171 18.1339C12.9171 18.1339 11.2802 21.8756 10.5692 24.1092C10.5622 24.1301 10.5118 24.4661 10.5118 24.7324C10.5118 26.8107 37.8538 26.8083 37.8538 24.7316C37.8538 24.4636 37.8026 24.1301 37.7991 24.1076C37.3149 22.1591 35.4539 18.1323 35.4539 18.1323C35.2325 17.5687 34.8467 17.0674 34.4321 16.7032C34.6592 16.209 34.7738 15.67 34.7738 15.0916C34.7738 14.8651 34.7587 14.648 34.7283 14.4415L34.728 14.4417ZM26.4609 13.973C26.5799 14.032 26.7021 14.0854 26.8278 14.1331C27.4003 14.3501 28.1032 14.5504 28.9383 14.7354C29.6339 14.8948 30.1341 15.0451 30.4205 15.1768C30.547 15.2348 30.566 15.2617 30.566 15.3291C30.566 15.3958 30.5524 15.4166 30.4576 15.4657C30.2671 15.5638 29.9181 15.6237 29.4228 15.6237C28.8719 15.6237 28.3091 15.5334 27.7323 15.3513C27.3648 15.2354 27.0278 15.0972 26.7205 14.937C26.7021 14.9273 26.6817 14.9164 26.6595 14.904C26.6346 14.8902 26.6091 14.8774 26.5834 14.8658C26.0068 14.601 25.3324 14.8679 25.0804 15.4505L24.801 16.0973H24.0266C24.11 15.7773 24.152 15.4418 24.152 15.0918C24.152 14.6869 24.1038 14.313 24.006 13.973L26.4609 13.973ZM16.1912 33.802C16.1912 32.2399 14.9199 30.968 13.3508 30.968C11.7841 30.968 10.5119 32.2372 10.5119 33.802C10.5119 35.3649 11.7832 36.633 13.3508 36.633C14.9199 36.6338 16.1912 35.3656 16.1912 33.802ZM38.1991 33.802C38.1991 32.2399 36.929 30.968 35.3602 30.968C33.7924 30.968 32.5197 32.2372 32.5197 33.802C32.5197 35.3649 33.7905 36.633 35.3602 36.633C36.9296 36.633 38.1991 35.3656 38.1991 33.802ZM19.79 33.0918C19.5385 33.0918 19.3347 33.2956 19.3347 33.547C19.3347 33.7985 19.5385 34.0022 19.79 34.0022H28.6154C28.8666 34.0022 29.0706 33.7985 29.0706 33.547C29.0706 33.2956 28.8666 33.0918 28.6154 33.0918H19.79ZM19.79 35.2161C19.5385 35.2161 19.3347 35.4199 19.3347 35.6714C19.3347 35.9228 19.5385 36.1266 19.79 36.1266H28.6154C28.8666 36.1266 29.0706 35.9228 29.0706 35.6714C29.0706 35.4199 28.8666 35.2161 28.6154 35.2161H19.79ZM23.5452 15.0916C23.5452 15.9668 23.2407 16.7233 22.6318 17.3612C22.0227 17.9993 21.1399 18.4077 19.9834 18.5871V19.3937C19.9834 19.9178 19.571 20.3426 19.0622 20.3426C18.5533 20.3426 18.1409 19.9178 18.1409 19.3937V18.6505C17.3733 18.5976 16.6466 18.4632 15.9607 18.247C15.5342 18.1126 15.153 17.9587 14.8176 17.7853C14.4943 17.6184 14.3556 17.2192 14.5027 16.8792C14.5076 16.8678 14.5122 16.857 14.5168 16.8464L15.0159 15.6913C15.1338 15.4185 15.444 15.296 15.709 15.4174C15.7207 15.4228 15.7323 15.4288 15.744 15.435C15.7705 15.4496 15.7955 15.4632 15.8185 15.4751C16.1577 15.6521 16.5276 15.8035 16.9281 15.9301C17.5627 16.1303 18.1869 16.2306 18.8013 16.2306C19.968 16.2306 20.5514 15.9301 20.5514 15.3291C20.5514 15.0126 20.385 14.7782 20.0525 14.6251C19.7198 14.4723 19.1849 14.3116 18.4481 14.1428C17.6393 13.9635 16.9638 13.7711 16.4213 13.5654C15.8789 13.36 15.4134 13.0305 15.0242 12.577C14.6354 12.1236 14.4408 11.512 14.4408 10.7423C14.4408 9.83567 14.7581 9.058 15.3928 8.40957C16.0274 7.76115 16.9434 7.36311 18.1408 7.21543V6.42452C18.1408 5.90047 18.5532 5.47559 19.0621 5.47559C19.571 5.47559 19.9833 5.90045 19.9833 6.42452V7.18373C20.5667 7.23657 21.1271 7.34197 21.6644 7.49994C22.0432 7.61158 22.3924 7.74652 22.7127 7.90503C22.7395 7.9183 22.7699 7.93402 22.8037 7.9519C22.9726 8.04159 23.0465 8.24942 22.9736 8.43015L22.2767 10.1602C22.219 10.3035 22.0597 10.3713 21.9207 10.3119C21.9144 10.3092 21.9085 10.3065 21.9025 10.3033C21.8516 10.277 21.8079 10.2548 21.7719 10.2372C20.8861 9.80417 20.024 9.58767 19.1848 9.58767C18.5811 9.58767 18.1407 9.68006 17.8644 9.86459C17.5883 10.0491 17.4501 10.2889 17.4501 10.5843C17.4501 10.8793 17.6137 11.1007 17.9413 11.2484C18.2686 11.3961 18.7959 11.5489 19.5227 11.7071C20.3415 11.8862 21.0194 12.0789 21.5568 12.2843C22.0943 12.4899 22.5599 12.817 22.9541 13.2649C23.3481 13.7131 23.5451 14.3219 23.5451 15.0917L23.5452 15.0916ZM34.1666 15.0916C34.1666 15.9668 33.862 16.7233 33.2532 17.3612C32.6441 17.9993 31.7612 18.4077 30.6048 18.5871V19.3937C30.6048 19.9178 30.1924 20.3426 29.6835 20.3426C29.1747 20.3426 28.7623 19.9178 28.7623 19.3937V18.6505C27.9947 18.5976 27.2679 18.4632 26.5821 18.247C26.1556 18.1126 25.7743 17.9587 25.4389 17.7853C25.1157 17.6184 24.9769 17.2192 25.1241 16.8792C25.1289 16.8678 25.1336 16.857 25.1382 16.8464L25.6373 15.6913C25.7551 15.4185 26.0654 15.296 26.3304 15.4174C26.342 15.4228 26.3537 15.4288 26.3653 15.435C26.3919 15.4496 26.4168 15.4632 26.4399 15.4751C26.7791 15.6521 27.149 15.8035 27.5494 15.9301C28.184 16.1303 28.8083 16.2306 29.4226 16.2306C30.5893 16.2306 31.1727 15.9301 31.1727 15.3291C31.1727 15.0126 31.0063 14.7782 30.6739 14.6251C30.3411 14.4723 29.8062 14.3116 29.0695 14.1428C28.2607 13.9635 27.5852 13.7711 27.0427 13.5654C26.5002 13.36 26.0347 13.0305 25.6456 12.577C25.2568 12.1236 25.0622 11.512 25.0622 10.7423C25.0622 9.83567 25.3795 9.058 26.0141 8.40957C26.6487 7.76115 27.5648 7.36311 28.7622 7.21543V6.42452C28.7622 5.90047 29.1746 5.47559 29.6835 5.47559C30.1923 5.47559 30.6047 5.90045 30.6047 6.42452V7.18373C31.1881 7.23657 31.7484 7.34197 32.2857 7.49994C32.6645 7.61158 33.0138 7.74652 33.3341 7.90503C33.3609 7.9183 33.3912 7.93402 33.4251 7.9519C33.5939 8.04159 33.6679 8.24942 33.595 8.43015L32.8981 10.1602C32.8404 10.3035 32.681 10.3713 32.542 10.3119C32.5358 10.3092 32.5298 10.3065 32.5239 10.3033C32.4729 10.277 32.4293 10.2548 32.3933 10.2372C31.5075 9.80417 30.6453 9.58767 29.8061 9.58767C29.2024 9.58767 28.7621 9.68006 28.4857 9.86459C28.2096 10.0491 28.0714 10.2889 28.0714 10.5843C28.0714 10.8793 28.2351 11.1007 28.5627 11.2484C28.89 11.3961 29.4173 11.5489 30.144 11.7071C30.9629 11.8862 31.6408 12.0789 32.1781 12.2843C32.7157 12.4899 33.1812 12.817 33.5755 13.2649C33.9695 13.7131 34.1665 14.3219 34.1665 15.0917L34.1666 15.0916Z" fill="#ECF63D"/>
</svg>
