<svg width="48" height="49" viewBox="0 0 48 49" fill="none" xmlns="http://www.w3.org/2000/svg">
<path d="M40.366 25.0093H37.9743L36.4238 20.2256C35.6267 17.7452 33.3675 16.1064 30.7985 16.1064H28.7608V22.0417C28.7608 24.655 26.6348 26.7813 24.0212 26.7813C21.408 26.7813 19.2816 24.6553 19.2816 22.0417L19.2819 16.1064H17.2443C14.6752 16.1064 12.4163 17.7452 11.6189 20.2256L10.0684 25.0093H7.67674C6.65807 25.0093 5.81641 25.851 5.81641 26.8697V27.9328C5.81641 28.9515 6.65807 29.7931 7.67674 29.7931H8.34102C7.98663 31.5206 7.76511 33.2922 7.76511 35.0641V44.1001C7.76511 45.1187 8.60677 45.9604 9.62544 45.9604H12.7259C13.7446 45.9604 14.5863 45.1187 14.5863 44.1001V41.2211H33.3668V44.1001C33.3668 45.1187 34.2084 45.9604 35.2271 45.9604H38.3721C39.3908 45.9604 40.2325 45.1187 40.2325 44.1001L40.2331 35.0199C40.2331 33.2483 40.0116 31.4763 39.6572 29.7488H40.3215C41.3401 29.7488 42.1818 28.9072 42.1818 27.8885V26.8254C42.2263 25.8512 41.3847 25.0096 40.366 25.0096L40.366 25.0093ZM17.289 36.0385H13.5238C12.9037 36.0385 12.3723 35.5512 12.3723 34.8869V33.1153C12.3723 32.4065 12.9924 31.8751 13.7012 31.9637L17.2447 32.5397C17.732 32.6283 18.0864 32.9827 18.1751 33.4255L18.4408 34.6215C18.5736 35.3738 18.0419 36.0385 17.289 36.0385ZM35.6708 34.8867C35.6708 35.5068 35.1394 36.0382 34.5193 36.0382H30.7542C30.0012 36.0382 29.4698 35.3739 29.6468 34.6652L29.9125 33.4692C30.0012 32.9819 30.3998 32.6721 30.8429 32.5834L34.3419 32.0075C35.0507 31.9188 35.6708 32.4505 35.6708 33.159L35.6708 34.8867Z" fill="#ECF63D"/>
<path d="M21.6743 13.1384V22.0415C21.6743 23.3258 22.7374 24.389 24.0219 24.389C25.3063 24.389 26.3694 23.3259 26.3694 22.0415V13.1384C27.1224 12.784 27.787 12.2081 28.3184 11.4552C29.47 9.81639 29.5586 7.60171 28.54 5.87425C28.0085 4.98846 27.3439 4.36835 26.5468 3.92525C26.2366 3.74821 25.8825 3.96943 25.8825 4.32382V8.04441C25.8825 8.62033 25.4395 9.06309 24.8639 9.06309H23.1806C22.6047 9.06309 22.1619 8.62003 22.1619 8.04441L22.1616 4.27961C22.1616 3.92522 21.8072 3.74818 21.4974 3.88104C20.7002 4.3241 19.9914 4.94416 19.5042 5.83004C18.4855 7.55749 18.6184 9.81631 19.7699 11.411C20.2569 12.2081 20.9215 12.784 21.6744 13.1384H21.6743Z" fill="#ECF63D"/>
</svg>
