<svg width="136" height="55" viewBox="0 0 136 55" fill="none" xmlns="http://www.w3.org/2000/svg">
<path d="M53.6175 44.9912C53.6175 45.9823 52.8277 46.7722 51.8365 46.7722C50.8608 46.7722 50.0554 45.9823 50.0554 44.9912C50.0554 44.0154 50.8608 43.2256 51.8365 43.2256C52.8277 43.2256 53.6175 44.0154 53.6175 44.9912Z" fill="#ECF63D"/>
<path d="M48.2589 50.2566C48.2589 51.2323 47.4535 52.0377 46.4778 52.0377C45.5021 52.0377 44.6968 51.2323 44.6968 50.2566C44.6968 49.2809 45.5021 48.4756 46.4778 48.4756C47.4535 48.4756 48.2589 49.2809 48.2589 50.2566Z" fill="#ECF63D"/>
<path d="M53.2458 9.3543C53.2458 8.37859 52.456 7.57324 51.4803 7.57324C50.4891 7.57324 49.6992 8.37859 49.6992 9.3543C49.6992 10.3455 50.4891 11.1354 51.4803 11.1354C52.456 11.1354 53.2458 10.3455 53.2458 9.3543Z" fill="#ECF63D"/>
<path d="M47.7632 4.39824C47.7632 3.42253 46.9733 2.61719 45.9976 2.61719C45.0064 2.61719 44.2166 3.42253 44.2166 4.39824C44.2166 5.38944 45.0064 6.1793 45.9976 6.1793C46.9733 6.1793 47.7632 5.38944 47.7632 4.39824Z" fill="#ECF63D"/>
<path d="M47.0354 41.878C46.4159 41.274 45.4247 41.2895 44.8516 41.909C40.9023 46.1216 35.3423 48.5686 29.5191 48.5686C29.3952 48.5686 29.2764 48.5634 29.1628 48.5531C28.3575 48.5531 27.6606 47.9491 27.6296 47.1438C27.5676 46.261 28.2801 45.5486 29.1474 45.564C29.2713 45.564 29.3952 45.564 29.5191 45.564C32.028 45.564 34.4905 45.0375 36.7672 44.0463C37.7429 43.6126 37.9752 42.3272 37.2163 41.5683L37.1853 41.5373C36.7362 41.0882 36.0702 40.9798 35.4817 41.2276C33.1276 42.2652 30.5103 42.6834 27.8619 42.3891C25.5078 42.1413 23.3241 41.3205 21.4346 40.097H9.41636C7.41848 40.097 5.80779 38.4863 5.82328 36.4884C5.82328 34.4286 5.85425 32.3687 5.90071 30.2934C5.96266 28.0787 6.55119 25.9415 7.85213 24.0675C7.96054 23.9126 8.03798 23.7268 8.17737 23.4635C7.55787 23.2466 6.98483 23.0453 6.4118 22.8595C5.32768 22.5187 4.97147 22.0386 5.11085 21.1249C5.26573 20.1492 5.93169 19.5916 6.95386 19.5761C7.96054 19.5761 8.98271 19.5606 9.9894 19.5916C10.423 19.6071 10.6708 19.4522 10.9032 19.065C11.7085 17.7176 12.4829 16.1689 13.3966 14.8679C15.5339 11.8169 18.0584 11.9098 18.1203 11.9098H35.1565C36.3335 11.9098 36.6433 10.2527 35.5437 9.8655C35.5333 9.8655 35.523 9.8655 35.5127 9.8655C34.9138 9.66932 34.2685 9.48864 33.5768 9.32344C32.2448 9.02918 30.8974 8.85881 29.5191 8.85881C29.3952 8.85881 29.2713 8.86398 29.1474 8.8743C28.2801 8.88979 27.5676 8.16188 27.6296 7.2791C27.6761 6.48924 28.3575 5.88523 29.1628 5.86974C29.2764 5.86974 29.3952 5.86974 29.5191 5.86974C35.3423 5.86974 40.9023 8.31675 44.8361 12.5138C45.4247 13.1488 46.4159 13.1643 47.0354 12.5603L47.0508 12.5293C47.6549 11.9408 47.6548 10.9806 47.0818 10.3766C45.1459 8.31675 42.8692 6.62862 40.3758 5.35865C41.0727 3.96478 40.4222 2.26117 38.9664 1.70362C35.9618 0.573035 32.7869 0 29.5191 0C22.8904 0 16.8194 2.41604 12.1267 6.39631C12.1731 5.97815 12.0492 5.5445 11.7395 5.20378C11.4297 4.87854 11.0116 4.70818 10.5934 4.70818C10.2217 4.70818 9.83452 4.84757 9.54026 5.11085C3.46919 10.6863 0 18.6159 0 26.8552C0 26.9791 0 27.0979 0 27.2114C0 27.3353 0 27.4541 0 27.5676C0 35.807 3.46919 43.7365 9.54026 49.312C9.83452 49.5908 10.2217 49.7147 10.5934 49.7147C11.0116 49.7147 11.4297 49.5443 11.7395 49.2191C12.0492 48.8784 12.1731 48.4447 12.1267 48.0265C16.8194 52.0223 22.8904 54.4229 29.5191 54.4229C32.7869 54.4229 35.9618 53.8498 38.9664 52.7192C40.4222 52.1617 41.0727 50.4581 40.3758 49.0642C42.8692 47.8097 45.1459 46.1061 47.0818 44.0463C47.6548 43.4423 47.6549 42.4975 47.0508 41.8935L47.0354 41.878Z" fill="#ECF63D"/>
<path d="M13.3501 31.7643C12.7151 31.7643 12.0646 31.7798 11.4296 31.7643C10.4694 31.7178 9.78796 31.2377 9.40078 30.3549C8.96713 29.4102 9.2459 28.5274 9.88089 27.815C10.4694 27.1335 11.2748 26.9786 12.1421 27.2884C13.3656 27.722 14.6046 28.1402 15.8126 28.5893C16.5869 28.8836 17.0051 29.658 16.8657 30.4014C16.7263 31.1757 16.1068 31.7333 15.286 31.7643C14.6355 31.7798 14.0005 31.7643 13.3501 31.7643Z" fill="white"/>
<path d="M40.2673 31.7643C40.9023 31.7643 41.5527 31.7798 42.1877 31.7643C43.148 31.7178 43.8294 31.2377 44.2166 30.3549C44.6502 29.4102 44.3715 28.5274 43.7365 27.815C43.148 27.1335 42.3426 26.9786 41.4753 27.2884C40.2518 27.722 39.0128 28.1402 37.8048 28.5893C37.0304 28.8836 36.6123 29.658 36.7516 30.4014C36.891 31.1757 37.5105 31.7333 38.3314 31.7643C38.9818 31.7798 39.6168 31.7643 40.2673 31.7643Z" fill="white"/>
<path d="M33.0501 32.4614H20.5672C19.6845 32.4614 18.9565 31.749 18.9565 30.8507V30.5874C18.9565 29.7046 19.6845 28.9922 20.5672 28.9922H33.0501C33.9329 28.9922 34.6608 29.7046 34.6608 30.5874V30.8507C34.6608 31.749 33.9329 32.4614 33.0501 32.4614Z" fill="white"/>
<path d="M30.975 21.7132H33.7317C35.8845 21.7132 38.4089 21.7132 40.9799 21.6977C40.0816 20.1955 39.1369 18.6777 38.2231 17.2219L37.5417 16.1377C36.9067 15.1156 36.0084 14.62 34.8159 14.6045C32.4463 14.6045 30.0302 14.6045 27.4284 14.6045C24.6406 14.6045 21.8529 14.6045 19.0651 14.6045C17.8261 14.6045 16.9434 15.1001 16.2774 16.1687C15.9263 16.7366 15.5753 17.2993 15.2243 17.8569C14.4189 19.1578 13.5981 20.4897 12.7927 21.8062C12.8134 21.8062 12.834 21.8062 12.8547 21.8062C13.1954 21.8062 13.5516 21.7752 13.9233 21.7597C14.3105 21.7442 14.7132 21.7132 15.1158 21.7132C17.1912 21.7132 19.2665 21.7132 21.3418 21.7132H24.78H28.2182H29.4572H30.975Z" fill="white"/>
<path d="M51.6224 33.6357L55.1724 20.8557H60.5624L64.0724 33.6357H60.4224L57.9824 23.2257H57.7524L55.2724 33.6357H51.6224ZM54.9724 30.8657V28.1057H60.7024V30.8657H54.9724ZM74.6063 30.6157V33.6357H64.7663V30.7957L70.2863 23.8657H64.8663V20.8557H74.4963V23.6757L68.9563 30.6157H74.6063ZM79.8338 33.6357H76.2038V20.8557H79.8338V33.6357ZM85.5369 33.6357H81.9069V20.8557H85.5369V33.6357ZM83.9869 30.5957H90.6569V33.6357H83.9869V30.5957ZM91.4076 33.6357L94.9576 20.8557H100.348L103.858 33.6357H100.208L97.7676 23.2257H97.5376L95.0576 33.6357H91.4076ZM94.7576 30.8657V28.1057H100.488V30.8657H94.7576ZM109.941 20.8457L112.861 29.6857H113.001L112.841 24.3457V20.8457H116.261V33.6357H111.521L108.461 24.5357H108.321L108.481 29.9557V33.6357H105.051V20.8457H109.941ZM120.883 33.6357V30.6157H123.573C124.266 30.6157 124.783 30.4291 125.123 30.0557C125.463 29.6824 125.633 29.1491 125.633 28.4557V25.9957C125.633 25.3024 125.463 24.7724 125.123 24.4057C124.783 24.0324 124.266 23.8457 123.573 23.8457H120.883V20.8557H123.703C125.576 20.8557 126.973 21.2991 127.893 22.1857C128.819 23.0657 129.283 24.3357 129.283 25.9957V28.4657C129.283 30.1324 128.823 31.4124 127.903 32.3057C126.983 33.1924 125.583 33.6357 123.703 33.6357H120.883ZM118.333 33.6357V20.8557H121.903V33.6357H118.333Z" fill="white"/>
<path d="M132.489 33.9357C131.842 33.9357 131.366 33.7724 131.059 33.4457C130.752 33.1124 130.599 32.6524 130.599 32.0657V31.9557C130.599 31.3757 130.752 30.9191 131.059 30.5857C131.366 30.2457 131.842 30.0757 132.489 30.0757C133.122 30.0757 133.592 30.2457 133.899 30.5857C134.212 30.9191 134.369 31.3757 134.369 31.9557V32.0657C134.369 32.6524 134.212 33.1124 133.899 33.4457C133.592 33.7724 133.122 33.9357 132.489 33.9357Z" fill="#ECF63D"/>
</svg>
