<svg width="56" height="57" viewBox="0 0 56 57" fill="none" xmlns="http://www.w3.org/2000/svg">
<path d="M18.4402 45.252H19.9113V46.7231H18.4402V45.252Z" fill="#ECF63D"/>
<path d="M30.2094 40.1035H28.7383V42.3102C28.7373 43.0905 28.427 43.8382 27.8756 44.3898C27.3239 44.9412 26.5762 45.2515 25.796 45.2525H21.3826V46.7236H25.796C26.966 46.7223 28.0878 46.257 28.9152 45.4295C29.7427 44.6019 30.2081 43.4802 30.2094 42.3102V40.1035Z" fill="#ECF63D"/>
<path d="M12.5554 27.9951V29.8048H16.9688V27.9951C15.5325 28.4466 13.9918 28.4466 12.5554 27.9951Z" fill="#ECF63D"/>
<path d="M12.5554 31.2764H16.9688V46.7233H12.5554V31.2764Z" fill="#ECF63D"/>
<path d="M14.7622 26.8629C16.323 26.8629 17.8198 26.2429 18.9231 25.1392C20.0268 24.0358 20.6468 22.5391 20.6468 20.9783C20.6468 19.4176 20.0268 17.9208 18.9231 16.8174C17.8198 15.7137 16.323 15.0938 14.7622 15.0938C13.2015 15.0938 11.7047 15.7137 10.6014 16.8174C9.49767 17.9208 8.87769 19.4176 8.87769 20.9783C8.87933 22.5385 9.49996 24.0342 10.6033 25.1373C11.7063 26.2406 13.2021 26.8613 14.7622 26.8629ZM15.4978 24.6562H14.0267V20.2427H15.4978V24.6562ZM14.7622 16.5649C15.9323 16.5662 17.054 17.0315 17.8815 17.8591C18.7089 18.6866 19.1743 19.8084 19.1757 20.9783H17.7045C17.7045 19.9272 17.1437 18.9558 16.2334 18.4301C15.3231 17.9047 14.2014 17.9047 13.2911 18.4301C12.3808 18.9559 11.82 19.9272 11.82 20.9783H10.3488C10.3501 19.8083 10.8155 18.6865 11.643 17.8591C12.4706 17.0316 13.5923 16.5662 14.7622 16.5649Z" fill="#ECF63D"/>
<path d="M31.6695 36.9423C32.3653 36.802 33.0461 36.5942 33.7019 36.322L29.4736 31.6816L25.2461 36.321C25.9019 36.5933 26.5823 36.8011 27.2781 36.9417C27.3513 36.2094 27.7851 35.5615 28.4347 35.2147C29.0842 34.8679 29.8638 34.8679 30.5134 35.2147C31.1629 35.5615 31.5967 36.2094 31.6699 36.9417L31.6695 36.9423Z" fill="#ECF63D"/>
<path d="M8.89109 25.4033C8.88288 25.6444 8.87828 25.8857 8.87795 26.1271C8.87303 29.3524 9.62896 32.5334 11.0847 35.4121V27.3444C10.2316 26.8499 9.48574 26.1902 8.89107 25.4037L8.89109 25.4033Z" fill="#ECF63D"/>
<path d="M40.4728 25.2578L34.7563 27.8442L37.8599 33.2933V33.2929C39.5684 31.2967 40.5076 28.7551 40.5069 26.1274C40.5069 25.8348 40.4954 25.5448 40.4728 25.2578Z" fill="#ECF63D"/>
<path d="M32.0454 15.3975L32.7386 21.6343L38.8797 20.3665C37.3481 17.8718 34.8908 16.0854 32.0454 15.3975Z" fill="#ECF63D"/>
<path d="M46.3917 25.3918H50.0551C50.0381 24.8982 50.0036 24.4076 49.952 23.9206H47.8628V22.4495H49.7428C49.3694 20.3601 48.6716 18.3422 47.6746 16.4681L44.4933 18.3051L43.7577 17.031L46.937 15.1953C46.676 14.7799 46.3995 14.3734 46.1072 13.9757L44.2959 15.0213L43.5603 13.7472L45.1848 12.8094C44.8209 12.3815 44.4384 11.9661 44.0371 11.5636L44.0374 11.5642C42.9394 10.4648 41.721 9.49218 40.4056 8.6643L38.5696 11.8436L37.2955 11.1081L39.1325 7.92638C38.698 7.6952 38.256 7.47978 37.8065 7.28078L36.7571 9.09903L35.483 8.36346L36.4264 6.7294C34.4276 6.01649 32.3302 5.61722 30.2092 5.54593V9.20932H28.7381V5.54492C28.2455 5.56233 27.7553 5.59746 27.2669 5.65033V7.73817H25.7958V5.86184C23.708 6.23849 21.6914 6.93661 19.8177 7.93127L21.6516 11.108L20.3775 11.8436L18.5448 8.66945C18.1278 8.93117 17.7206 9.20667 17.3233 9.4963L18.3679 11.3056L17.0938 12.0412L16.1569 10.4177C14.9567 11.4367 13.8763 12.589 12.9368 13.8526C15.2518 13.2589 17.7111 13.8276 19.5307 15.3769C21.3503 16.9262 22.3035 19.2632 22.0868 21.6434C21.8697 24.0234 20.5099 26.1494 18.4401 27.3443V43.7808H25.7958C26.1859 43.7804 26.5596 43.6251 26.8354 43.3493C27.1113 43.0734 27.2666 42.6997 27.2669 42.3096V38.4374C23.9572 37.8431 21.0258 35.9417 19.1336 33.1617L20.3493 32.3332C20.5772 32.6671 20.8231 32.9886 21.0862 33.296L24.1907 27.8436L21.8145 26.7688L22.4214 25.4284L25.5328 26.8361C25.7213 26.9215 25.8651 27.0821 25.9291 27.2791C25.9932 27.4758 25.9712 27.6906 25.8687 27.8702L22.1583 34.3863V34.3866C22.6903 34.8578 23.2663 35.2768 23.8787 35.6377L28.9302 30.0941C29.0694 29.941 29.2668 29.854 29.474 29.854C29.6809 29.854 29.8782 29.941 30.0175 30.0941L35.0696 35.6384H35.0699C35.682 35.2769 36.2577 34.8569 36.7893 34.3847L33.0789 27.87V27.8703C32.9765 27.6903 32.9545 27.4756 33.0185 27.2789C33.0825 27.0822 33.2264 26.9213 33.4149 26.8359L40.2474 23.7446L40.2478 23.7449C40.0941 23.0507 39.8737 22.3733 39.5887 21.7221L32.2454 23.2379L32.2458 23.2376C32.0432 23.2796 31.832 23.2339 31.6645 23.1124C31.4974 22.9906 31.3887 22.8041 31.366 22.5985L30.5375 15.145C30.1871 15.1115 29.8322 15.0937 29.4736 15.0937C29.1163 15.0937 28.7617 15.1128 28.4097 15.1463L27.5812 22.5988H27.5815C27.5585 22.8044 27.4501 22.9909 27.2827 23.1124C27.1152 23.2342 26.9044 23.2796 26.7018 23.2379L22.8095 22.4343L23.107 20.9934L26.2086 21.6337L26.9021 15.3938C25.5117 15.7255 24.1998 16.3261 23.0403 17.1621L22.1823 15.9671C24.3049 14.4369 26.8567 13.6162 29.4736 13.6225C36.3686 13.6225 41.9783 19.2321 41.9783 26.1271C41.976 29.0603 40.9435 31.8997 39.0616 34.1495C37.1793 36.3992 34.5671 37.9166 31.6803 38.4371V42.3097C31.6806 43.9986 30.9536 45.6056 29.6851 46.7205C32.981 46.6949 36.2222 45.8743 39.1332 44.3283L37.2962 41.1469L38.5703 40.4113L40.4059 43.5907C40.8213 43.3296 41.2278 43.0531 41.6255 42.7609L40.5799 40.9495L41.854 40.2139L42.7918 41.8384C43.2197 41.4746 43.6351 41.092 44.0377 40.6908L44.0374 40.6911C45.1368 39.593 46.1094 38.3747 46.9373 37.0592L43.7576 35.2232L44.4932 33.9491L47.6745 35.7861C47.9057 35.3517 48.1211 34.9097 48.3201 34.4602L46.5022 33.4107L47.2378 32.1366L48.8718 33.0801C49.5848 31.0813 49.984 28.9838 50.0553 26.8629H46.3919L46.3917 25.3918ZM29.4736 23.9206C30.0588 23.9206 30.6204 24.1531 31.034 24.5669C31.4477 24.9806 31.6803 25.5422 31.6803 26.1273C31.6803 26.7124 31.4478 27.274 31.034 27.6877C30.6203 28.1014 30.0587 28.334 29.4736 28.334C28.8885 28.334 28.3269 28.1015 27.9132 27.6877C27.4995 27.274 27.267 26.7124 27.267 26.1273C27.2676 25.5421 27.5004 24.9812 27.9139 24.5675C28.3276 24.154 28.8885 23.9212 29.4737 23.9206L29.4736 23.9206Z" fill="#ECF63D"/>
<path d="M30.2094 26.1272C30.2094 26.5334 29.8801 26.8627 29.4739 26.8627C29.0676 26.8627 28.7383 26.5334 28.7383 26.1272C28.7383 25.721 29.0676 25.3916 29.4739 25.3916C29.8801 25.3916 30.2094 25.721 30.2094 26.1272Z" fill="#ECF63D"/>
<path d="M28.7383 37.1614V38.6325H30.2094V37.1614C30.2094 36.7551 29.8801 36.4258 29.4739 36.4258C29.0676 36.4258 28.7383 36.7551 28.7383 37.1614Z" fill="#ECF63D"/>
</svg>
