<svg width="65" height="65" viewBox="0 0 65 65" fill="none" xmlns="http://www.w3.org/2000/svg">
<path d="M28.0881 27.7482C28.0881 28.9632 28.4256 29.1432 29.1906 29.4132L30.3381 29.8182V25.9932H29.6631C28.8081 25.9932 28.0881 26.7807 28.0881 27.7482Z" fill="#ECF63D"/>
<path d="M33.7131 38.3699H34.3881C35.2656 38.3699 35.9631 37.5824 35.9631 36.6149C35.9631 35.3999 35.6256 35.2199 34.8606 34.9499L33.7131 34.5449V38.3699Z" fill="#ECF63D"/>
<path d="M49.0806 17.5107L44.4681 22.1232C44.1306 22.4607 43.7031 22.6182 43.2756 22.6182C42.8481 22.6182 42.4206 22.4607 42.0831 22.1232C41.4306 21.4707 41.4306 20.3907 42.0831 19.7382L46.6956 15.1257C42.7356 11.7507 37.6281 9.68066 32.0256 9.68066C19.6056 9.68066 9.52563 19.7607 9.52563 32.1807C9.52563 44.6007 19.6056 54.6807 32.0256 54.6807C44.4456 54.6807 54.5256 44.6007 54.5256 32.1807C54.5256 26.5782 52.4556 21.4707 49.0806 17.5107ZM35.9631 31.7757C37.4031 32.2932 39.3381 33.3282 39.3381 36.6357C39.3381 39.4482 37.1106 41.7657 34.3881 41.7657H33.7131V42.3282C33.7131 43.2507 32.9481 44.0157 32.0256 44.0157C31.1031 44.0157 30.3381 43.2507 30.3381 42.3282V41.7657H30.1581C27.1656 41.7657 24.7131 39.2457 24.7131 36.1407C24.7131 35.1957 25.4781 34.4307 26.4006 34.4307C27.3231 34.4307 28.0881 35.1957 28.0881 36.1182C28.0881 37.3557 29.0106 38.3682 30.1581 38.3682H30.3381V33.3732L28.0881 32.5857C26.6481 32.0682 24.7131 31.0332 24.7131 27.7257C24.7131 24.9132 26.9406 22.5957 29.6631 22.5957H30.3381V22.0557C30.3381 21.1332 31.1031 20.3682 32.0256 20.3682C32.9481 20.3682 33.7131 21.1332 33.7131 22.0557V22.6182H33.8931C36.8856 22.6182 39.3381 25.1382 39.3381 28.2432C39.3381 29.1657 38.5731 29.9307 37.6506 29.9307C36.7281 29.9307 35.9631 29.1657 35.9631 28.2432C35.9631 27.0057 35.0406 25.9932 33.8931 25.9932H33.7131V30.9882L35.9631 31.7757Z" fill="#ECF63D"/>
<path d="M56.0781 9.02816C55.8981 8.62316 55.5831 8.28566 55.1556 8.10566C54.9531 8.03816 54.7506 7.99316 54.5256 7.99316H45.5256C44.6031 7.99316 43.8381 8.75816 43.8381 9.68066C43.8381 10.6032 44.6031 11.3682 45.5256 11.3682H50.4531L46.6956 15.1257C47.5506 15.8682 48.3381 16.6557 49.0806 17.5107L52.8381 13.7532V18.6807C52.8381 19.6032 53.6031 20.3682 54.5256 20.3682C55.4481 20.3682 56.2131 19.6032 56.2131 18.6807V9.68066C56.2131 9.45566 56.1681 9.25316 56.0781 9.02816Z" fill="#ECF63D"/>
</svg>
