<svg width="56" height="57" viewBox="0 0 56 57" fill="none" xmlns="http://www.w3.org/2000/svg">
<path d="M36.0026 15.8432H44.3602C44.5817 15.8446 44.7949 15.7577 44.9526 15.6021C45.1099 15.4465 45.1992 15.2344 45.2006 15.0128C45.2034 14.7895 45.1155 14.575 44.9571 14.4176C44.7987 14.2599 44.5834 14.1734 44.3602 14.1776H36.0026C35.5404 14.1776 35.165 14.5509 35.1625 15.0128C35.1611 15.2354 35.2494 15.4489 35.4074 15.6052C35.5658 15.7615 35.7804 15.8473 36.0026 15.8432ZM36.0026 12.5071H44.3602C44.5936 12.5252 44.8242 12.445 44.9958 12.2859C45.1678 12.1268 45.2655 11.9035 45.2655 11.6694C45.2655 11.4353 45.1678 11.2117 44.9958 11.0526C44.8242 10.8935 44.5936 10.8136 44.3602 10.8314H36.0026C35.7692 10.8136 35.539 10.8935 35.367 11.0526C35.1953 11.2117 35.0976 11.4353 35.0976 11.6694C35.0976 11.9035 35.1953 12.1268 35.367 12.2859C35.539 12.445 35.7692 12.5252 36.0026 12.5071ZM41.8594 7.88541C41.8569 7.19427 41.2956 6.63501 40.604 6.63501H39.7838C39.4475 6.62838 39.1223 6.75712 38.8816 6.99227C38.6408 7.22707 38.5048 7.54909 38.5034 7.88541V9.14109H41.8394L41.8594 7.88541ZM36.0026 19.1641H44.3602C44.5936 19.1822 44.8242 19.102 44.9958 18.9429C45.1678 18.7838 45.2655 18.5605 45.2655 18.3264C45.2655 18.0923 45.1678 17.8686 44.9958 17.7096C44.8242 17.5508 44.5936 17.4706 44.3602 17.4887H36.0026C35.5404 17.4995 35.174 17.8816 35.1824 18.3438C35.1876 18.7946 35.5519 19.1588 36.0026 19.1641ZM36.0026 22.5001H44.3602C44.8217 22.5001 45.1957 22.1261 45.1957 21.6649C45.1957 21.2037 44.8217 20.8297 44.3602 20.8297H36.0026C35.5404 20.8297 35.165 21.203 35.1625 21.6649C35.1611 21.8878 35.2494 22.1017 35.4074 22.2587C35.5651 22.416 35.7797 22.5029 36.0026 22.5001ZM17.5413 16.7582C17.3194 16.7603 17.1063 16.672 16.951 16.5133C16.6255 16.1871 16.6255 15.6589 16.951 15.333L20.9524 11.3316C20.8673 10.5096 20.4807 9.74805 19.8674 9.19394C19.2544 8.63992 18.4579 8.3322 17.6314 8.33045H9.28853C8.46515 8.33987 7.67426 8.65178 7.06611 9.2072C6.45835 9.76263 6.07597 10.5225 5.99255 11.3416L9.99393 15.343V15.3427C10.2329 15.5824 10.3041 15.9424 10.1736 16.255C10.0431 16.5673 9.73715 16.77 9.39873 16.7682C9.17684 16.7693 8.96437 16.681 8.80842 16.5233L5.9524 13.6722V16.3182L9.99389 20.3443C10.2315 20.5854 10.3016 20.9451 10.1715 21.2573C10.0417 21.5699 9.73711 21.7737 9.3987 21.7747C9.1768 21.7758 8.96433 21.6875 8.80838 21.5298L5.95237 18.6787V21.3449L9.99385 25.346C10.2314 25.587 10.3016 25.9468 10.1714 26.259C10.0417 26.5716 9.73707 26.7754 9.39866 26.7764C9.17677 26.7775 8.9643 26.6892 8.80834 26.5315L5.94751 23.6808V26.3466L9.99391 30.3477C10.3145 30.6777 10.3145 31.2031 9.99391 31.5331C9.83517 31.6887 9.62095 31.7753 9.39871 31.7732C9.17751 31.776 8.96469 31.6894 8.80839 31.5331L5.94755 28.6921V31.3482L9.99395 35.3743C10.3146 35.7043 10.3146 36.2297 9.99395 36.5598C9.83521 36.7154 9.62099 36.8015 9.39875 36.7998C9.17755 36.8026 8.96473 36.7161 8.80843 36.5598L5.9476 33.7037V36.3497L9.994 40.3859C10.3146 40.7159 10.3146 41.241 9.994 41.5711C9.83246 41.7229 9.62034 41.8087 9.39879 41.8115C9.17865 41.8094 8.96758 41.7236 8.80848 41.5711L5.94764 38.7155V41.3513L9.99404 45.3973C10.3143 45.7256 10.3143 46.2497 9.99404 46.578C9.8346 46.7332 9.62143 46.8208 9.39884 46.8229C9.17764 46.8215 8.96552 46.7336 8.80852 46.578L5.95251 43.7269V46.728C5.95251 47.6146 6.30454 48.4648 6.93077 49.0921C7.55737 49.7197 8.40723 50.0728 9.29377 50.0742H17.6465C18.5372 50.0753 19.3919 49.7215 20.021 49.0903C20.65 48.4595 21.0014 47.6037 20.9976 46.713V43.7119L18.1415 46.563C17.9898 46.7388 17.7714 46.8435 17.539 46.8519C17.3067 46.8602 17.0813 46.7713 16.9173 46.6066C16.7533 46.4419 16.6654 46.2162 16.6745 45.9838C16.6839 45.7515 16.7896 45.5338 16.9661 45.3824L20.9975 41.3513V38.7005L18.1415 41.5565V41.5561C17.815 41.8757 17.2927 41.8757 16.9661 41.5561C16.6399 41.2285 16.6399 40.6986 16.9661 40.3709L20.9975 36.3497V33.6989L18.1415 36.5549V36.5545C17.815 36.8741 17.2927 36.8741 16.9661 36.5545C16.6399 36.2269 16.6399 35.697 16.9661 35.3693L20.9975 31.3481V28.6972L18.1464 31.5533V31.5529C17.9898 31.7085 17.7773 31.7947 17.5565 31.7933C17.3353 31.7971 17.1218 31.7103 16.9662 31.5529C16.6399 31.2253 16.6399 30.6953 16.9662 30.3677L20.9975 26.3465V23.6956L18.1464 26.5516V26.5513C17.9901 26.7083 17.778 26.7962 17.5565 26.7966C17.3346 26.7987 17.1214 26.71 16.9662 26.5513C16.64 26.2237 16.64 25.6937 16.9662 25.3661L20.9976 21.3449V18.6738L18.1465 21.5249C17.9902 21.6816 17.778 21.7695 17.5565 21.7699C17.3346 21.772 17.1214 21.6833 16.9662 21.5249C16.64 21.197 16.64 20.6674 16.9662 20.3395L20.9976 16.3081V13.6625L18.1465 16.5136V16.5132C17.9867 16.6737 17.7679 16.762 17.5415 16.7582L17.5413 16.7582ZM22.6528 40.0354H25.999V19.9941H22.6528V40.0354ZM49.3766 27.5313H27.6651V32.5329H49.3766C49.8228 32.5329 50.2506 32.355 50.5653 32.0386C50.8796 31.7225 51.0551 31.2937 51.0523 30.8475V29.1867C51.0523 28.7426 50.8758 28.3163 50.5615 28.0023C50.2475 27.6879 49.8211 27.5114 49.3766 27.5114V27.5313ZM42.6948 25.8459V24.1701H37.6932V25.8459H42.6948Z" fill="#ECF63D"/>
</svg>
