<svg width="34" height="60" viewBox="0 0 34 60" fill="none" xmlns="http://www.w3.org/2000/svg">
<path d="M32.7766 6.40162L9.17834 30L32.7766 53.5984C33.1283 53.9459 33.4078 54.3594 33.5991 54.8153C33.7904 55.2712 33.8896 55.7604 33.8911 56.2547C33.8926 56.7491 33.7963 57.2389 33.6078 57.6959C33.4193 58.1529 33.1423 58.5682 32.7928 58.9178C32.4432 59.2673 32.028 59.5443 31.5709 59.7328C31.1139 59.9213 30.6241 60.0176 30.1297 60.0161C29.6354 60.0146 29.1462 59.9154 28.6903 59.7241C28.2344 59.5328 27.8209 59.2533 27.4734 58.9016L1.22342 32.6516C0.520192 31.9484 0.125122 30.9946 0.125122 30C0.125122 29.0055 0.520192 28.0517 1.22342 27.3484L27.4734 1.09841C28.1781 0.402206 29.1297 0.0131235 30.1203 0.0161306C31.1109 0.0191376 32.0601 0.41399 32.7606 1.11446C33.461 1.81494 33.8559 2.76412 33.8589 3.75473C33.8619 4.74534 33.4728 5.6969 32.7766 6.40162Z" fill="black"/>
</svg>
