<svg width="34" height="60" viewBox="0 0 34 60" fill="none" xmlns="http://www.w3.org/2000/svg">
<path d="M1.23961 53.6301L24.8379 30.0317L1.2396 6.43333C0.887914 6.08588 0.608397 5.67232 0.417131 5.21645C0.225865 4.76057 0.126625 4.27138 0.125125 3.77701C0.123624 3.28264 0.219892 2.79285 0.408387 2.33582C0.596882 1.8788 0.873882 1.46355 1.22346 1.11397C1.57303 0.7644 1.98828 0.4874 2.44531 0.298905C2.90233 0.11041 3.39212 0.0141449 3.88649 0.0156455C4.38086 0.0171461 4.87006 0.116383 5.32593 0.307649C5.78181 0.498914 6.19536 0.778431 6.54281 1.13012L32.7928 27.3801C33.496 28.0834 33.8911 29.0372 33.8911 30.0317C33.8911 31.0263 33.496 31.9801 32.7928 32.6833L6.54281 58.9333C5.8381 59.6295 4.88654 60.0186 3.89593 60.0156C2.90531 60.0126 1.95613 59.6178 1.25566 58.9173C0.555186 58.2168 0.160334 57.2676 0.157326 56.277C0.154319 55.2864 0.543401 54.3348 1.23961 53.6301Z" fill="black"/>
</svg>
