<svg width="56" height="57" viewBox="0 0 56 57" fill="none" xmlns="http://www.w3.org/2000/svg">
<path d="M22.9341 39.3513L22.3488 38.5808L23.8097 35.6915L23.5771 35.2262C23.2281 34.5315 22.9309 33.8058 22.6902 33.0672L22.5264 32.5731L19.4625 31.5518L19.3387 30.5919C19.2331 29.7958 19.1786 28.9788 19.1786 28.1534C19.1786 27.3279 19.2336 26.5072 19.3387 25.7148L19.4625 24.7517L22.1811 23.8505L9.55803 23.851C9.36167 23.851 9.25281 23.6653 9.36167 23.502L9.95075 22.699L13.799 17.186C14.1224 16.7538 14.657 16.4699 15.2087 16.4699H23.3203C23.7018 15.9939 24.1127 15.5361 24.5449 15.0997L15.1207 15.1002C14.0994 15.1002 13.1657 15.5911 12.592 16.4054L8.14407 22.7001C8.14407 22.7332 8.12166 22.7332 8.12166 22.7551C7.92903 22.8746 7.46 22.8965 6.6132 21.9915C5.39608 20.6864 1.87447 20.7632 1.87447 20.7632C1.87447 20.7632 0.417233 21.276 1.87447 22.8314C1.87447 22.8314 3.36475 25.2449 5.67942 24.5795C5.67942 24.5795 6.88585 24.9829 6.18793 25.8409C5.61326 26.6007 4.62128 27.6257 4.62128 29.2318C4.62128 29.3732 4.63195 29.4933 4.64369 29.6352C4.65436 29.7659 4.67678 29.8967 4.70932 30.0354C4.72 30.0685 4.72 30.1224 4.73173 30.1661C5.14579 31.8966 6.74492 38.6011 7.33025 41.0797C7.46098 41.6543 7.96308 42.0358 8.55857 42.0358H9.11457V43.4931C9.11457 43.8746 9.42672 44.1761 9.80929 44.1761H14.1121C14.483 44.1761 14.7989 43.8746 14.7989 43.4931V42.0358H25.4104C24.4995 41.2232 23.6719 40.3256 22.934 39.3514L22.9341 39.3513ZM13.3621 32.4035C12.1007 32.6537 9.82982 31.3715 8.7317 29.6342C8.4489 29.1759 8.23013 28.6898 8.14262 28.1876C7.76485 26.0368 13.2416 28.7004 14.5025 29.6342C14.6663 29.765 14.764 29.8525 14.764 29.8957C14.765 29.8957 16.1897 31.7968 13.3621 32.4035ZM54.6859 26.4326C54.6678 26.2544 54.6502 26.0799 54.624 25.9017L51.6508 24.9172C51.4726 24.1467 51.2293 23.4056 50.9347 22.6821C50.6364 21.9698 50.2805 21.283 49.8729 20.6326V20.6288L51.2864 17.8376C50.367 16.6343 49.2914 15.5549 48.0881 14.6323L45.2937 16.0244C44.6214 15.6028 43.9197 15.2432 43.1972 14.9412C42.4779 14.6466 41.7363 14.407 40.9844 14.2326L40.0069 11.285C39.2695 11.1831 38.5139 11.1367 37.7503 11.1367C36.9798 11.1367 36.2205 11.1879 35.4782 11.285L34.5044 14.2208V14.2246C33.0035 14.5698 31.5424 15.1626 30.1979 15.9987L27.4435 14.607C26.244 15.5189 25.1715 16.5846 24.2559 17.7754L25.6299 20.5368C25.1977 21.2235 24.8306 21.9396 24.5286 22.6807C24.2234 23.4149 23.9838 24.171 23.8093 24.941L20.8735 25.9148C20.7754 26.649 20.7284 27.3944 20.7284 28.1538C20.7284 28.9104 20.7748 29.6585 20.8735 30.3884L23.8211 31.3697C24.162 32.852 24.7484 34.2948 25.5728 35.6325L24.1663 38.4162C25.0819 39.6264 26.1576 40.7127 27.3571 41.6397L30.1515 40.248V40.2443C31.4673 41.0729 32.9319 41.694 34.4943 42.0579V42.0616L35.4756 45.0268C36.2205 45.125 36.9804 45.1788 37.7508 45.1788C38.5143 45.1788 39.2699 45.1239 40.0074 45.0305L40.9919 42.0573C42.5254 41.7009 43.9651 41.0974 45.2617 40.2911H45.2654L48.0566 41.7008C49.2492 40.7921 50.3201 39.7271 51.2406 38.5355L49.8416 35.7374V35.7337C50.6702 34.4147 51.2882 32.9532 51.6515 31.3951L54.6247 30.4069C54.6498 30.2324 54.6685 30.0579 54.6866 29.8797C54.74 29.3103 54.773 28.7357 54.773 28.1551C54.773 27.5735 54.74 26.9994 54.6861 26.4322L54.6859 26.4326ZM41.8537 39.0392C40.5779 39.5226 39.1937 39.7841 37.7504 39.7841C31.3286 39.7841 26.1247 34.5799 26.1247 28.1583C26.1247 26.6359 26.4155 25.1851 26.9453 23.8517C28.2862 20.4976 31.1426 17.9066 34.6712 16.9396C35.1365 16.8126 35.6092 16.7139 36.0954 16.6488C36.6332 16.5693 37.1855 16.5293 37.7485 16.5293C41.3614 16.5293 44.5918 18.1791 46.7214 20.7633C46.9828 21.0829 47.2299 21.4137 47.4556 21.7595C48.6695 23.5945 49.3738 25.7928 49.3738 28.1598C49.3765 33.1376 46.2508 37.3824 41.8539 39.0392L41.8537 39.0392ZM45.0333 33.0465L40.4727 28.4891C40.3814 28.471 40.2763 28.456 40.1712 28.4379C39.9242 28.3941 39.5058 28.2303 39.1867 28.0201L42.1049 25.1019C42.8066 25.3346 43.6058 25.1638 44.1619 24.611C44.7179 24.055 44.8855 23.2525 44.656 22.554C44.656 22.5503 44.656 22.5503 44.6523 22.5503L43.3007 23.9018L42.2794 23.6254L42.0073 22.6041L43.3589 21.2526H43.3551C42.6577 21.0237 41.8573 21.1869 41.2981 21.7467C40.7421 22.3021 40.5746 23.0983 40.804 23.7999V23.8036L38.4088 26.1946L37.4062 27.1973L33.2415 23.0326L32.8163 21.6917L30.7524 20.6848L30.5128 20.9244L30.2732 21.1677L31.2758 23.2279L32.6167 23.6532L36.7852 27.8216L33.3943 31.2126V31.2088C32.6926 30.9799 31.8965 31.1469 31.3411 31.7029C30.7813 32.2627 30.6175 33.0614 30.8469 33.76V33.7637L32.1985 32.4121L33.2198 32.6885L33.4919 33.7061L32.1404 35.0614H32.1441C32.8458 35.2871 33.6451 35.127 34.2043 34.5673C34.4807 34.2871 34.6626 33.9531 34.7421 33.5935C34.8264 33.237 34.811 32.863 34.6957 32.5103L37.6315 29.5777C37.8311 29.8973 37.9805 30.3012 38.021 30.5445C38.0392 30.6683 38.0541 30.7809 38.0722 30.8828L39.2397 32.0503L42.6339 35.4482L42.7791 35.5933L42.8079 35.6184C42.8628 35.6253 42.9205 35.6253 42.9786 35.6253C43.4439 35.6253 43.9193 35.4471 44.2865 35.0838C44.2934 35.0768 44.3009 35.0656 44.3115 35.0587C44.3697 35.0005 44.486 34.8842 44.5548 34.8191C44.5618 34.8154 44.5655 34.8084 44.573 34.801C44.5767 34.7972 44.5767 34.7972 44.5799 34.794C44.5837 34.7903 44.5906 34.7871 44.5943 34.7871C44.6231 34.754 44.6493 34.7215 44.6776 34.6889C45.0778 34.2599 45.2949 33.7551 45.2085 33.2242L45.0333 33.0465ZM40.6541 30.1176L40.811 29.9608C40.8291 29.9426 40.8622 29.9426 40.8798 29.9608L43.4746 32.5556C43.4928 32.5737 43.4928 32.6068 43.4746 32.6244L43.3177 32.7813C43.2996 32.7994 43.2665 32.7994 43.2489 32.7813L40.6541 30.1865C40.6359 30.1689 40.6359 30.1358 40.6541 30.1176ZM42.37 33.7294L42.21 33.8895C42.1918 33.9077 42.1635 33.9077 42.1443 33.8895L39.5458 31.291C39.5277 31.2729 39.5277 31.2446 39.5458 31.2254L39.7059 31.0653C39.724 31.0472 39.7523 31.0472 39.7715 31.0653L42.37 33.6638C42.3876 33.683 42.3876 33.7113 42.37 33.7294ZM43.5114 33.7663L43.3513 33.9231C43.3332 33.9413 43.3049 33.9413 43.2857 33.9231L39.5138 30.1512C39.4956 30.1331 39.4956 30.1048 39.5138 30.0856L39.6707 29.9255C39.6888 29.9074 39.7219 29.9074 39.7395 29.9255L43.5114 33.6974C43.529 33.7188 43.529 33.7481 43.5114 33.7663Z" fill="#ECF63D"/>
</svg>
