<svg width="56" height="57" viewBox="0 0 56 57" fill="none" xmlns="http://www.w3.org/2000/svg">
<path d="M51.2978 16.8993C52.5204 16.8993 53.5097 15.9137 53.5097 14.6981C53.5097 13.4825 52.5205 12.4969 51.2978 12.4969H43.3142C43.2509 8.99338 42.7127 8.99023 38.2432 8.99023H37.9575C33.4386 8.99023 32.9403 8.9938 32.8854 12.4969H23.1122C23.0481 8.99338 22.5107 8.99023 18.0412 8.99023H17.7567C13.2363 8.99023 12.7383 8.9938 12.6833 12.4969H4.70211C3.48062 12.4969 2.49023 13.4817 2.49023 14.6981C2.49023 15.9145 3.48061 16.8993 4.70211 16.8993H51.2978Z" fill="#ECF63D"/>
<path d="M50.9104 20.178C49.3257 18.0439 46.8218 18.0439 42.6747 18.0439H15.9788C10.3596 18.0439 7.53862 18.0439 5.63638 19.9351C3.73413 21.8262 3.73413 24.6308 3.73413 30.2184V35.1027C3.73413 41.0195 3.73413 43.9901 5.42924 45.9788C7.28814 48.1586 10.3062 48.1586 15.3064 48.1586H42.6744C46.4794 48.1586 49.2297 48.1586 50.8583 45.7961C52.2057 43.8432 52.2662 40.9082 52.2662 34.982V30.1816C52.2658 24.565 52.2658 22.0031 50.9105 20.1786L50.9104 20.178ZM21.6976 29.7259C21.6976 31.4453 21.6975 31.4394 19.9837 31.4394H13.8796C12.165 31.4394 12.165 31.447 12.165 29.7259V29.6292C12.165 27.928 12.165 27.9149 13.8796 27.9149H19.9833C21.6971 27.9149 21.6971 27.9093 21.6971 29.6292L21.6976 29.7259ZM44.2579 29.7247C44.2579 31.4454 44.2579 31.4395 42.544 31.4395H41.2629V32.7152C41.2629 34.4204 41.2684 34.4204 39.5398 34.4204H39.4438C37.7156 34.4204 37.722 34.4204 37.722 32.7152V31.4395H36.4392C34.7257 31.4395 34.7257 31.447 34.7257 29.7247V29.6292C34.7257 27.9269 34.7257 27.9149 36.4392 27.9149H37.722V26.6391C37.722 24.9339 37.714 24.9335 39.4438 24.9335H39.5398C41.2497 24.9335 41.2629 24.9339 41.2629 26.6391V27.9149H42.544C44.2579 27.9149 44.2579 27.9093 44.2579 29.6292V29.7247Z" fill="#ECF63D"/>
</svg>
