<svg width="36" height="37" viewBox="0 0 36 37" fill="none" xmlns="http://www.w3.org/2000/svg">
<path d="M3.50705 16.2979H1.9888C0.925932 16.2979 0.0908203 17.133 0.0908203 18.1958V18.5755H3.50705V16.2979Z" fill="white"/>
<path d="M0.470151 32.7725H1.60901V33.5316H0.470151V34.2907H1.60901V35.0498L0.470151 35.0501C0.546145 35.7714 1.15329 36.3407 1.91268 36.3407H2.36812V33.3038H3.12724V36.3407H3.88637V33.3038H4.64549V36.3407H5.10093C5.82223 36.3028 6.42965 35.7714 6.50537 35.0501H5.40494V34.291H6.5438V33.5318H5.36712V32.7727L6.5438 32.7725V32.165H0.470123L0.470151 32.7725Z" fill="white"/>
<path d="M17.8558 17.3607C22.1453 17.3607 26.4347 17.7404 30.6482 18.4236C30.838 18.4615 31.0279 18.4996 31.2556 18.5375L28.0671 14.248C27.232 13.0713 25.8654 12.3879 24.4228 12.3879L11.4786 12.3881C10.036 12.3503 8.6695 13.0713 7.79649 14.2482L4.64584 18.5375C4.8357 18.4996 5.02555 18.4615 5.21513 18.4236C9.39082 17.7023 13.6042 17.3607 17.8557 17.3607L17.8558 17.3607Z" fill="white"/>
<path d="M33.8748 16.2979H32.3565V18.5756H35.7727V18.1959C35.7727 17.133 34.9376 16.2979 33.8748 16.2979Z" fill="white"/>
<path d="M0.470161 24.8006V25.7117H6.16411C6.27796 25.7117 6.39182 25.6738 6.46782 25.56C6.54381 25.4461 6.54381 25.2941 6.54381 25.1803V23.6239L6.16411 23.3961C6.16411 24.459 5.32899 25.2941 4.26612 25.2941C3.20325 25.2941 2.36814 24.459 2.36814 23.3961C2.36814 22.713 2.70972 22.1056 3.27924 21.764L1.95052 21.0049C1.00153 22.0675 0.470093 23.3959 0.470093 24.8006L0.470161 24.8006Z" fill="white"/>
<path d="M32.736 23.4348C32.736 22.8273 32.2805 22.3341 31.6731 22.2959L30.5724 22.9412C30.3066 23.5105 30.5345 24.1938 31.1038 24.4594C31.6731 24.7253 32.3565 24.4973 32.6221 23.928C32.6981 23.7763 32.736 23.6243 32.736 23.4348Z" fill="white"/>
<path d="M29.6992 23.4345L29.3195 23.6622V25.2186C29.3195 25.3325 29.3195 25.4844 29.3955 25.5983C29.4715 25.6743 29.5853 25.75 29.6992 25.75H35.3931V24.8389C35.3931 23.4345 34.8617 22.0679 33.9127 21.043L32.584 21.8021C33.4951 22.3335 33.7988 23.5102 33.2671 24.3832C32.7357 25.2943 31.559 25.5981 30.686 25.0663C30.0407 24.725 29.6991 24.1176 29.6991 23.4345L29.6992 23.4345Z" fill="white"/>
<path d="M13.4145 27.1162C16.9068 27.7993 18.9186 27.7993 22.4489 27.1162C23.9293 26.8125 25.7134 26.0155 25.9033 23.8137L9.96024 23.8135C10.1501 25.7874 11.8582 26.7743 13.4146 27.1162L13.4145 27.1162Z" fill="white"/>
<path d="M4.26622 24.5736C4.9115 24.5736 5.40508 24.0422 5.40508 23.4347C5.40508 23.283 5.36721 23.0932 5.29122 22.9412L4.15236 22.2959C3.50708 22.3338 3.05167 22.8652 3.05167 23.4726C3.08953 24.1181 3.62093 24.6118 4.26622 24.5736Z" fill="white"/>
<path d="M5.32909 19.1832C4.26622 19.3731 3.31723 19.7906 2.48212 20.4738L7.30306 23.2069V25.1808C7.34093 25.4845 7.2652 25.7882 7.07534 26.0159C6.84763 26.3197 6.50606 26.4714 6.16424 26.4714H0.470299V28.3694H7.07534L8.70747 30.0015L8.17605 30.5329L6.77161 29.1285L0.470245 29.1287V31.4065H35.3931V29.1287H29.092L27.6876 30.5332L27.1562 30.0018L28.7883 28.3696L35.3933 28.3694V26.4714H29.6994C29.3578 26.4714 29.0162 26.3197 28.7883 26.0159C28.5984 25.7882 28.5224 25.4845 28.5606 25.1808V23.2069L30.0031 22.3718L33.3436 20.4738C32.5463 19.7906 31.5595 19.3731 30.5345 19.1832C22.1834 17.7788 13.6805 17.7788 5.32934 19.1832H5.32909ZM26.6624 23.4349C26.6624 25.7504 25.182 27.3447 22.6006 27.8383C21.0823 28.1799 19.5259 28.3318 17.9316 28.3697C16.3752 28.3318 14.8188 28.1798 13.2627 27.8383C11.2887 27.4586 9.20084 26.092 9.20084 23.4349V23.0552H26.6623L26.6624 23.4349Z" fill="white"/>
<path d="M7.68259 4.64376C7.68259 4.89689 7.30289 4.89689 7.30289 4.64376C7.30289 4.39088 7.68259 4.39088 7.68259 4.64376Z" fill="white"/>
<path d="M7.87241 7.11176H22.6767C24.0432 9.08573 26.7385 9.61716 28.7503 8.25062C29.4335 7.79518 29.9652 7.11176 30.3067 6.35263H27.2321C26.397 6.35263 25.7138 5.6695 25.7138 4.83438V4.45468C25.7138 3.61957 26.397 2.93643 27.2321 2.93643H30.3067C29.3197 0.734499 26.7764 -0.328371 24.5368 0.62062C23.7777 0.962196 23.1324 1.49362 22.6388 2.17703H7.83458C6.46803 2.17703 5.36734 3.27773 5.36734 4.64427C5.40494 6.01082 6.50593 7.11179 7.87247 7.11179L7.87241 7.11176ZM7.4927 3.69526C8.02412 3.69526 8.44169 4.11283 8.44169 4.64425C8.44169 5.17567 8.02412 5.59324 7.4927 5.59324C6.96128 5.59324 6.54371 5.17567 6.54371 4.64425C6.54371 4.11283 6.96128 3.69526 7.4927 3.69526Z" fill="white"/>
<path d="M29.3196 32.7725H30.4584V33.5316H29.3196V34.2907H30.4584V35.0498H29.3196C29.3956 35.7711 30.0027 36.3025 30.724 36.3404L31.2176 36.3407V33.3038H31.9767V36.3407H32.7358V33.3038H33.495V36.3407H33.9504C34.6717 36.3028 35.2791 35.7714 35.3548 35.0501H34.2544V34.291H35.3933V33.5318H34.2166V32.7727L35.3933 32.7725V32.165H29.3196V32.7725Z" fill="white"/>
</svg>
