<svg width="56" height="56" viewBox="0 0 56 56" fill="none" xmlns="http://www.w3.org/2000/svg">
<path fill-rule="evenodd" clip-rule="evenodd" d="M8.0996 39.0396C7.70235 39.0396 7.32115 39.1975 7.04027 39.4784C6.7594 39.7592 6.60156 40.1404 6.60156 40.5377C6.60156 42.1574 7.39003 43.633 8.56775 44.8181C9.74547 46.0032 11.3284 46.9725 13.217 47.7761C16.9938 49.3834 22.0237 50.3217 27.5741 50.3217C33.1245 50.3217 38.1545 49.3834 41.9313 47.7761C43.8195 46.9726 45.4025 46.0032 46.5805 44.8181C47.7582 43.633 48.5467 42.1574 48.5467 40.5377C48.5467 40.1404 48.3888 39.7592 48.1079 39.4784C47.8271 39.1975 47.4459 39.0396 47.0486 39.0396C46.6514 39.0396 46.2702 39.1975 45.9893 39.4784C45.7084 39.7592 45.5506 40.1404 45.5506 40.5377C45.5506 41.2061 45.2493 41.908 44.4562 42.7058C43.663 43.5036 42.3937 44.3212 40.7579 45.017C37.4866 46.4094 32.7796 47.3256 27.5744 47.3256C22.3692 47.3256 17.6617 46.4094 14.3908 45.017C12.7551 44.3209 11.4857 43.5036 10.6926 42.7058C9.89946 41.908 9.59814 41.2061 9.59814 40.5377C9.59814 40.1404 9.44031 39.7592 9.15943 39.4784C8.87855 39.1975 8.49735 39.0396 8.10011 39.0396H8.0996Z" fill="#121212"/>
<path fill-rule="evenodd" clip-rule="evenodd" d="M37.0128 30.7277C36.7172 30.7494 36.4346 30.8581 36.2006 31.0404C35.9668 31.2226 35.7923 31.4704 35.6993 31.7519C35.5743 32.1291 35.6044 32.5404 35.7826 32.8951C35.9611 33.2502 36.2731 33.5198 36.65 33.6448C38.2424 34.1715 39.4424 34.8215 40.158 35.4294C40.8735 36.0377 41.0561 36.5035 41.0561 36.8399C41.0561 37.1612 40.908 37.5538 40.3479 38.0834C39.7878 38.6131 38.8428 39.1933 37.6093 39.6868C35.1429 40.6735 31.5489 41.3339 27.5742 41.3339C23.5994 41.3339 20.0054 40.6735 17.5382 39.6868C16.3047 39.1932 15.3597 38.6131 14.7996 38.0834C14.2396 37.5538 14.0918 37.1613 14.0918 36.8399C14.0918 36.5042 14.274 36.0397 14.9872 35.4325C15.7005 34.8253 16.8959 34.1743 18.4836 33.6476V33.6479C18.8607 33.5228 19.1727 33.2533 19.351 32.8982C19.5292 32.5431 19.5593 32.1318 19.4346 31.755C19.3088 31.3781 19.039 31.0668 18.6839 30.8893C18.3291 30.7114 17.9181 30.682 17.5413 30.807C15.6968 31.419 14.1821 32.182 13.0442 33.1507C11.9066 34.1191 11.0957 35.3921 11.0957 36.84C11.0957 38.1732 11.7869 39.3563 12.7429 40.2604C13.6989 41.1645 14.9461 41.8784 16.4234 42.4694C19.3786 43.6514 23.2756 44.3302 27.5739 44.3302C31.8722 44.3302 35.7692 43.6514 38.7244 42.4694C40.2017 41.8785 41.4493 41.1646 42.4049 40.2604C43.3613 39.3563 44.0524 38.1732 44.0524 36.84C44.0524 35.3898 43.2389 34.1171 42.098 33.1477C40.9571 32.1784 39.4413 31.4129 37.5921 30.8011C37.4056 30.7389 37.2089 30.7141 37.0127 30.7278L37.0128 30.7277Z" fill="#121212"/>
<path fill-rule="evenodd" clip-rule="evenodd" d="M27.5742 11.3733C25.1098 11.3733 23.0801 13.403 23.0801 15.8674C23.0801 18.3318 25.1098 20.3615 27.5742 20.3615C30.0386 20.3615 32.0683 18.3318 32.0683 15.8674C32.0683 13.403 30.0386 11.3733 27.5742 11.3733ZM27.5742 14.3694C28.4192 14.3694 29.0722 15.0224 29.0722 15.8674C29.0722 16.7124 28.4192 17.3655 27.5742 17.3655C26.7292 17.3655 26.0761 16.7124 26.0761 15.8674C26.0761 15.0224 26.7292 14.3694 27.5742 14.3694Z" fill="#121212"/>
<path fill-rule="evenodd" clip-rule="evenodd" d="M27.5741 5.38107C20.9731 5.38107 15.5898 10.7643 15.5898 17.3653C15.5898 19.2653 16.3435 21.299 17.3687 23.4862C18.394 25.6734 19.7321 27.9696 21.064 30.0752C23.7277 34.2864 26.386 37.7496 26.386 37.7496C26.6699 38.1188 27.1086 38.3348 27.5741 38.3348C28.0396 38.3348 28.4782 38.1188 28.7622 37.7496C28.7622 37.7496 31.4205 34.2864 34.0842 30.0752C35.4161 27.9696 36.7542 25.6734 37.7795 23.4862C38.8047 21.299 39.5584 19.2653 39.5584 17.3653C39.5584 10.7643 34.1751 5.38107 27.5741 5.38107ZM27.5741 8.37714C32.5557 8.37714 36.5623 12.3837 36.5623 17.3653C36.5623 18.3611 36.0052 20.2093 35.0643 22.2162C34.1233 24.2235 32.84 26.4355 31.5502 28.4745C29.564 31.6147 28.3847 33.1277 27.5741 34.2149C26.7636 33.1278 25.5842 31.6144 23.598 28.4745C22.3083 26.4355 21.0249 24.2235 20.0839 22.2162C19.143 20.2089 18.5859 18.3608 18.5859 17.3653C18.5859 12.3837 22.5925 8.37714 27.5741 8.37714Z" fill="#121212"/>
</svg>
