<svg width="65" height="65" viewBox="0 0 65 65" fill="none" xmlns="http://www.w3.org/2000/svg">
<path d="M35.1689 29.4343C34.9624 24.8333 34.6877 22.3615 31.9412 19.3404C28.4389 15.4272 27.1338 11.6502 30.0187 5.81445C30.7745 9.72765 31.0492 13.23 33.7957 15.3591C36.5422 17.4881 38.8075 23.2558 35.1689 29.4343ZM30.0209 29.4343C29.8825 26.9624 29.7462 25.7254 28.2346 24.0094C26.3801 21.9484 25.6243 19.9578 27.2041 16.8004C27.6172 18.9295 27.6853 20.7839 29.1947 21.8825C30.7042 22.9811 32.0093 26.1407 30.0187 29.4365L30.0209 29.4343ZM42.4482 51.1315H54.9458C55.7017 51.1315 55.9763 51.6808 55.4951 52.2982C55.4951 52.2982 50.6196 58.5471 43.8918 58.5471H19.7908L8.18739 52.2982C7.70621 51.6808 7.91274 51.1315 8.66858 51.1315H21.0278C19.3118 50.2395 16.7696 46.3241 16.7696 41.4507V31.1503H46.8448V31.9742C47.8072 31.1503 48.9739 30.7372 50.2087 30.7372C51.9247 30.7372 55.1524 32.5235 55.1524 35.6128C55.1524 40.0753 52.1993 41.7232 50.4833 42.8921C50.4833 42.8921 47.2557 45.432 44.9904 48.385C44.2345 49.6902 43.3425 50.7207 42.4504 51.1315H42.4482ZM50.2065 32.5938C49.1079 32.5938 47.7346 33.075 46.8426 35.2722V40.9717C46.8426 41.7276 46.7745 42.6196 46.6361 43.3754C48.1477 41.8638 49.9318 40.8355 49.9318 40.8355C51.0304 40.0797 53.2276 38.6383 53.2276 35.8237C53.2957 33.833 51.4413 32.5938 50.2065 32.5938ZM21.9858 33.4178H20.0632V36.2324H21.9858V33.4178ZM21.9858 37.8803H20.0632V42.4812C20.0632 42.4812 20.6125 48.6619 24.5257 50.5141C22.122 47.6995 21.9858 44.4718 21.9858 42.4812V37.8803Z" fill="#ECF63D"/>
</svg>
