<svg width="57" height="57" viewBox="0 0 57 57" fill="none" xmlns="http://www.w3.org/2000/svg">
<path d="M22.7014 40.8875C22.7014 43.9249 20.2164 46.4099 17.179 46.4099C14.1416 46.4099 11.6567 43.9249 11.6567 40.8875C11.6567 37.8502 14.1416 35.3652 17.179 35.3652C20.2164 35.3652 22.7014 37.8502 22.7014 40.8875ZM33.7461 15.4847C35.2923 15.4847 36.5073 14.2698 36.5073 12.7235C36.5073 11.1773 35.2923 9.96235 33.7461 9.96235C32.1998 9.96235 30.9849 11.1773 30.9849 12.7235C30.9849 14.2698 32.1998 15.4847 33.7461 15.4847ZM51.9699 36.4697C51.9699 39.1757 50.2025 41.4396 47.773 42.2127L22.591 51.7667C20.9342 52.5949 19.1118 53.0367 17.1792 53.0367C10.497 53.0367 5.03003 47.5695 5.03003 40.8875C5.03003 38.6233 5.63751 36.4696 6.74186 34.6472C6.74186 34.6472 6.74186 34.5921 6.79695 34.5921C7.07314 34.0952 7.40442 33.6533 7.79077 33.2115L26.2354 7.09077C26.2905 7.03568 26.2905 6.98021 26.346 6.92513C28.0578 4.71638 30.764 3.28027 33.7459 3.28027C37.6669 3.28027 41.0356 5.71021 42.4161 9.07885C42.4161 9.07885 42.4161 9.13393 42.4712 9.13393L51.1966 33.4323C51.6939 34.371 51.9701 35.3653 51.9701 36.4697L51.9699 36.4697ZM28.776 12.7235C28.776 15.4847 30.9847 17.6935 33.7459 17.6935C36.5071 17.6935 38.7158 15.4847 38.7158 12.7235C38.7158 9.96235 36.5071 7.75361 33.7459 7.75361C30.9847 7.75361 28.776 9.96235 28.776 12.7235ZM24.9104 40.8875C24.9104 36.6352 21.4312 33.1564 17.1793 33.1564C12.927 33.1564 9.44821 36.6356 9.44821 40.8875C9.44821 45.1399 12.9274 48.6186 17.1793 48.6186C21.4312 48.6186 24.9104 45.1399 24.9104 40.8875ZM47.8282 30.7264L42.5265 15.9817C41.2014 19.5711 37.7773 22.1111 33.7461 22.1111C28.8312 22.1111 24.8 18.3006 24.4132 13.4964L13.1476 29.4007C14.4176 28.9589 15.7431 28.7382 17.1788 28.7382C23.8611 28.7382 29.328 34.2054 29.328 40.8874C29.328 43.3723 28.5549 45.6917 27.2848 47.6246L42.8579 41.7155C41.0355 40.6662 39.8205 38.6781 39.8205 36.4694C39.8205 33.1007 42.5265 30.3946 45.8953 30.3946C46.5578 30.3946 47.2204 30.5052 47.8279 30.7263L47.8282 30.7264Z" fill="#ECF63D"/>
</svg>
