<svg width="56" height="57" viewBox="0 0 56 57" fill="none" xmlns="http://www.w3.org/2000/svg">
<path d="M24.9808 38.4589H16.6774C16.6774 37.6249 16.0017 36.9492 15.1677 36.9492H14.4128V42.988H15.1677C16.0017 42.988 16.6774 42.3123 16.6774 41.4783H24.9808V38.4589Z" fill="#ECF63D"/>
<path d="M40.8322 38.4589H32.5288V41.4783H40.8322C40.8322 42.3123 41.5079 42.988 42.3419 42.988H43.0968V36.9492H42.3419C41.5076 36.9492 40.8319 37.6249 40.8319 38.4589H40.8322Z" fill="#ECF63D"/>
<path d="M49.1358 30.1562H46.1164C45.2839 30.1562 44.6067 30.8332 44.6067 31.6659V48.2728C44.6067 49.1052 45.2836 49.7825 46.1164 49.7825H49.1358C49.9683 49.7825 50.6455 49.1055 50.6455 48.2728V31.6659C50.6455 30.8332 49.9682 30.1562 49.1358 30.1562ZM47.6261 49.1798L44.9427 47.391L45.7798 46.1351L47.6261 47.365L49.4718 46.1348L50.3088 47.3907L47.6261 49.1798ZM47.6261 45.4055L44.9427 43.6167L45.7798 42.3608L47.6261 43.5911L49.4718 42.3608L50.3088 43.6167L47.6261 45.4055ZM47.6261 41.6313L44.9427 39.8425L45.7798 38.5866L47.6261 39.8169L49.4718 38.5866L50.3088 39.8425L47.6261 41.6313ZM47.6261 37.8571L44.9427 36.0683L45.7798 34.8123L47.6261 36.0426L49.4718 34.8123L50.3088 36.0683L47.6261 37.8571ZM47.6261 34.0831L44.9427 32.2943L45.7798 31.0384L47.6261 32.2684L49.4718 31.0381L50.3088 32.294L47.6261 34.0831Z" fill="#ECF63D"/>
<path d="M11.3933 30.1562H8.37395C7.54148 30.1562 6.86426 30.8332 6.86426 31.6659V48.2728C6.86426 49.1052 7.54122 49.7825 8.37395 49.7825H11.3933C12.2258 49.7825 12.903 49.1055 12.903 48.2728V31.6659C12.903 30.8332 12.2258 30.1562 11.3933 30.1562ZM9.88365 49.1798L7.20026 47.391L8.03732 46.1351L9.88365 47.365L11.7293 46.1348L12.5664 47.3907L9.88365 49.1798ZM9.88365 45.4055L7.20026 43.6167L8.03732 42.3608L9.88365 43.5911L11.7293 42.3608L12.5664 43.6167L9.88365 45.4055ZM9.88365 41.6313L7.20026 39.8425L8.03732 38.5866L9.88365 39.8169L11.7293 38.5866L12.5664 39.8425L9.88365 41.6313ZM9.88365 37.8571L7.20026 36.0683L8.03732 34.8123L9.88365 36.0426L11.7293 34.8123L12.5664 36.0683L9.88365 37.8571ZM9.88365 34.0831L7.20026 32.2943L8.03732 31.0384L9.88365 32.2684L11.7293 31.0381L12.5664 32.294L9.88365 34.0831Z" fill="#ECF63D"/>
<path d="M34.0389 14.3047C34.0389 14.0481 34.0139 13.7974 33.9787 13.5498H23.5315C23.496 13.7974 23.4709 14.0478 23.4709 14.3047C23.4709 14.5612 23.4988 14.8119 23.5343 15.0595H33.9751C34.0107 14.8119 34.0388 14.5612 34.0388 14.3047H34.0389Z" fill="#ECF63D"/>
<path d="M28.0002 16.5684H29.5099V34.6842H28.0002V16.5684Z" fill="#ECF63D"/>
<path d="M26.4904 22.2792V20.7024C23.7965 19.7528 21.9614 17.2008 21.9614 14.3038C21.9614 10.5583 25.0096 7.51009 28.7551 7.51009C32.5006 7.51009 35.5488 10.5583 35.5488 14.3038C35.5488 17.2008 33.7139 19.7528 31.0197 20.7024V22.2792C34.5658 21.2829 37.0585 18.0636 37.0585 14.3034C37.0585 9.72542 33.3334 6 28.7551 6C24.1768 6.00031 20.4517 9.72542 20.4517 14.3034C20.4517 18.0632 22.9443 21.2832 26.4904 22.2792Z" fill="#ECF63D"/>
<path d="M26.4905 42.2331H31.0202L31.0196 36.1943H26.4905L26.4905 42.2331ZM28.755 37.704C29.589 37.704 30.2647 38.3798 30.2647 39.2137C30.2647 40.0477 29.589 40.7234 28.755 40.7234C27.921 40.7234 27.2453 40.0477 27.2453 39.2137C27.2453 38.3797 27.921 37.704 28.755 37.704Z" fill="#ECF63D"/>
<path d="M32.7506 45.7861L33.7268 46.7623H23.4712V48.272H33.7268L32.7506 49.2478L33.818 50.3152L36.6163 47.5171L33.818 44.7188L32.7506 45.7861Z" fill="#ECF63D"/>
<path d="M14.6339 16.0349L15.7013 17.1023L18.4996 14.3042L15.7013 11.5059L14.6339 12.5732L15.6101 13.5494H5.35449V15.0588H15.6101L14.6339 16.0349Z" fill="#ECF63D"/>
<path d="M47.4045 24.6507L46.3371 23.5836L45.3613 24.5595V14.3047H43.8516V24.5595L42.8757 23.5836L41.8083 24.6507L44.6064 27.449L47.4045 24.6507Z" fill="#ECF63D"/>
</svg>
