<svg width="55" height="55" viewBox="0 0 55 55" fill="none" xmlns="http://www.w3.org/2000/svg">
<path d="M28.9879 6.67969C28.1667 6.67969 27.5008 7.34557 27.5008 8.16681C27.5008 8.98806 28.1667 9.65394 28.9879 9.65394C38.022 9.65394 45.3463 16.9777 45.3463 26.0123C45.3463 26.8336 46.0122 27.4995 46.8334 27.4995C47.6547 27.4995 48.3206 26.8336 48.3206 26.0123C48.3206 15.3356 39.6646 6.67969 28.9879 6.67969Z" fill="white"/>
<path fill-rule="evenodd" clip-rule="evenodd" d="M17.3287 12.5029C15.517 10.7024 12.5789 10.6792 10.7615 12.4856C6.27421 16.9453 5.21495 24.0249 8.95011 29.3641C13.926 36.4788 19.0575 41.6614 25.645 46.1661C30.9834 49.8172 37.9746 48.6023 42.3807 44.2229C44.237 42.3779 44.3654 39.3744 42.469 37.4893L38.3641 33.4097C36.5955 31.652 33.7511 31.56 31.8915 33.2311L29.8958 35.024C29.3471 35.5172 28.5657 35.5899 27.9791 35.2351C24.1039 32.8905 21.9536 30.7332 19.6352 26.943C19.2837 26.3688 19.3534 25.6046 19.847 25.0615L21.6509 23.0785C23.3379 21.2239 23.2439 18.3817 21.471 16.6197L17.3287 12.5029ZM12.8581 14.5952C13.5001 13.9572 14.565 13.9495 15.2322 14.6124L19.3749 18.7299C20.0342 19.3852 20.0531 20.4162 19.4513 21.0781L17.6475 23.0612C16.311 24.5304 16.0216 26.7355 17.0984 28.4958C19.6647 32.6906 22.1569 35.1892 26.4401 37.7806C28.2017 38.8465 30.4089 38.5626 31.884 37.2372L33.8793 35.444C34.5512 34.8405 35.6038 34.8604 36.2674 35.52L40.3723 39.6C41.1135 40.3366 40.9837 41.4187 40.2843 42.1142C36.7408 45.6358 31.3182 46.4434 27.3242 43.7122C21.061 39.4287 16.1784 34.5107 11.3873 27.6606C8.56739 23.6287 9.28674 18.1455 12.8582 14.5959L12.8581 14.5952Z" fill="white"/>
<path d="M28.9879 18.5771C28.1667 18.5771 27.5008 19.243 27.5008 20.0643C27.5008 20.8855 28.1667 21.5514 28.9879 21.5514C31.452 21.5514 33.4493 23.5487 33.4493 26.0128C33.4493 26.834 34.1152 27.4999 34.9364 27.4999C35.7577 27.4999 36.4236 26.834 36.4236 26.0128C36.4236 21.9063 33.0944 18.5771 28.9879 18.5771Z" fill="white"/>
<path d="M27.5008 14.1151C27.5008 13.2938 28.1667 12.6279 28.9879 12.6279C36.3797 12.6279 42.3721 18.6203 42.3721 26.0121C42.3721 26.8333 41.7062 27.4992 40.8849 27.4992C40.0637 27.4992 39.3978 26.8333 39.3978 26.0121C39.3978 20.2628 34.7372 15.6022 28.9879 15.6022C28.1667 15.6022 27.5008 14.9363 27.5008 14.1151Z" fill="white"/>
</svg>
