<svg width="55" height="55" viewBox="0 0 55 55" fill="none" xmlns="http://www.w3.org/2000/svg">
<path fill-rule="evenodd" clip-rule="evenodd" d="M8.0255 38.6875C7.62825 38.6875 7.24705 38.8453 6.96618 39.1262C6.6853 39.4071 6.52747 39.7883 6.52747 40.1855C6.52747 41.8053 7.31594 43.2809 8.49366 44.466C9.67137 45.651 11.2543 46.6204 13.1429 47.4239C16.9197 49.0313 21.9496 49.9696 27.5 49.9696C33.0504 49.9696 38.0804 49.0313 41.8572 47.4239C43.7454 46.6204 45.3284 45.651 46.5064 44.466C47.6841 43.2809 48.4726 41.8053 48.4726 40.1855C48.4726 39.7883 48.3147 39.4071 48.0338 39.1262C47.753 38.8453 47.3718 38.6875 46.9745 38.6875C46.5773 38.6875 46.1961 38.8453 45.9152 39.1262C45.6343 39.4071 45.4765 39.7883 45.4765 40.1855C45.4765 40.854 45.1752 41.5558 44.3821 42.3537C43.5889 43.1515 42.3196 43.969 40.6838 44.6649C37.4125 46.0573 32.7055 46.9735 27.5003 46.9735C22.2951 46.9735 17.5876 46.0573 14.3167 44.6649C12.681 43.9687 11.4116 43.1515 10.6185 42.3537C9.82536 41.5558 9.52404 40.8539 9.52404 40.1855C9.52404 39.7883 9.36621 39.4071 9.08534 39.1262C8.80446 38.8453 8.42326 38.6875 8.02601 38.6875H8.0255Z" fill="white"/>
<path fill-rule="evenodd" clip-rule="evenodd" d="M36.9384 30.3756C36.6428 30.3974 36.3602 30.506 36.1262 30.6883C35.8924 30.8705 35.7179 31.1183 35.6249 31.3998C35.4999 31.777 35.53 32.1883 35.7082 32.5431C35.8867 32.8982 36.1987 33.1677 36.5756 33.2927C38.168 33.8194 39.368 34.4694 40.0835 35.0774C40.7991 35.6856 40.9817 36.1514 40.9817 36.4878C40.9817 36.8092 40.8336 37.2017 40.2735 37.7314C39.7134 38.261 38.7684 38.8412 37.5349 39.3347C35.0685 40.3214 31.4745 40.9818 27.4998 40.9818C23.525 40.9818 19.931 40.3214 17.4638 39.3347C16.2303 38.8411 15.2853 38.261 14.7252 37.7314C14.1652 37.2017 14.0174 36.8092 14.0174 36.4878C14.0174 36.1521 14.1996 35.6876 14.9128 35.0804C15.6261 34.4732 16.8215 33.8222 18.4092 33.2955V33.2958C18.7863 33.1708 19.0983 32.9012 19.2766 32.5461C19.4548 32.191 19.4849 31.7797 19.3602 31.4029C19.2344 31.0261 18.9646 30.7148 18.6095 30.5372C18.2547 30.3593 17.8437 30.3299 17.4669 30.455C15.6224 31.0669 14.1077 31.8299 12.9698 32.7987C11.8322 33.767 11.0213 35.0401 11.0213 36.4879C11.0213 37.8211 11.7125 39.0042 12.6685 39.9083C13.6245 40.8124 14.8717 41.5264 16.349 42.1173C19.3042 43.2994 23.2012 43.9781 27.4995 43.9781C31.7978 43.9781 35.6948 43.2993 38.65 42.1173C40.1273 41.5264 41.3749 40.8125 42.3305 39.9083C43.2869 39.0042 43.978 37.8211 43.978 36.4879C43.978 35.0377 43.1645 33.765 42.0236 32.7957C40.8827 31.8263 39.3669 31.0609 37.5177 30.449C37.3311 30.3868 37.1345 30.362 36.9383 30.3757L36.9384 30.3756Z" fill="white"/>
<path fill-rule="evenodd" clip-rule="evenodd" d="M27.4999 11.0215C25.0355 11.0215 23.0058 13.0512 23.0058 15.5156C23.0058 17.98 25.0355 20.0097 27.4999 20.0097C29.9643 20.0097 31.994 17.98 31.994 15.5156C31.994 13.0512 29.9643 11.0215 27.4999 11.0215ZM27.4999 14.0175C28.3449 14.0175 28.9979 14.6706 28.9979 15.5156C28.9979 16.3606 28.3449 17.0136 27.4999 17.0136C26.6549 17.0136 26.0019 16.3606 26.0019 15.5156C26.0019 14.6706 26.6549 14.0175 27.4999 14.0175Z" fill="white"/>
<path fill-rule="evenodd" clip-rule="evenodd" d="M27.4999 5.0293C20.8989 5.0293 15.5157 10.4125 15.5157 17.0136C15.5157 18.9135 16.2694 20.9472 17.2946 23.1344C18.3198 25.3216 19.658 27.6178 20.9898 29.7235C23.6535 33.9347 26.3119 37.3978 26.3119 37.3978C26.5958 37.767 27.0345 37.983 27.4999 37.983C27.9654 37.983 28.4041 37.767 28.688 37.3978C28.688 37.3978 31.3464 33.9347 34.0101 29.7235C35.3419 27.6178 36.6801 25.3216 37.7053 23.1344C38.7306 20.9472 39.4842 18.9135 39.4842 17.0136C39.4842 10.4125 34.101 5.0293 27.4999 5.0293ZM27.4999 8.02536C32.4815 8.02536 36.4881 12.032 36.4881 17.0136C36.4881 18.0094 35.9311 19.8575 34.9901 21.8644C34.0492 23.8717 32.7658 26.0837 31.4761 28.1227C29.4898 31.2629 28.3105 32.7759 27.4999 33.8631C26.6894 32.776 25.51 31.2626 23.5238 28.1227C22.2341 26.0837 20.9507 23.8717 20.0098 21.8644C19.0688 19.8572 18.5118 18.009 18.5118 17.0136C18.5118 12.032 22.5183 8.02536 27.4999 8.02536Z" fill="white"/>
</svg>
