<svg width="21" height="40" viewBox="0 0 21 40" fill="none" xmlns="http://www.w3.org/2000/svg">
<path fill-rule="evenodd" clip-rule="evenodd" d="M9.87409 39.8358L6.11629 37.6044V32.0229L3.51626 30.005V36.0606L0.010376 33.9785V6.63418L9.87416 0.777344L19.7372 6.63418L9.87416 12.0728L9.87409 39.8358ZM20.2773 8.35808L11.3821 13.3202V39.8357L20.2773 34.5552V8.35808ZM7.06625 32.3665L8.58034 33.0541V35.5155L7.06625 34.8274V32.3665ZM7.06625 27.7279L8.58034 28.4155V30.8769L7.06625 30.1888V27.7279ZM7.06625 22.7471L8.58034 23.4353V25.8967L7.06625 25.2085V22.7471ZM7.06625 17.7157L8.58034 18.4038V20.8647L7.06625 20.1771V17.7157ZM4.20981 21.1358L5.72333 21.824V24.2854L4.20981 23.5972V21.1358ZM4.20981 16.2041L5.72333 16.8922V19.3536L4.20981 18.6655V16.2041ZM4.20981 11.7119L5.72333 12.4V14.8615L4.20981 14.1733V11.7119ZM1.35336 28.7998L2.86689 29.4879V31.9488L1.35336 31.2612V28.7998ZM1.35336 24.2102L2.86689 24.8978V27.3592L1.35336 26.6711V24.2102ZM1.35336 14.5196L2.86689 15.2077V17.6686L1.35336 16.9804V14.5196ZM1.35336 9.88094L2.86689 10.5685V13.03L1.35336 12.3418V9.88094ZM2.80902 6.43849L9.8743 2.35971L16.9396 6.43849L15.5839 7.04758L9.87437 3.75129L4.16484 7.04758L2.80902 6.43849Z" fill="white"/>
</svg>
