<svg width="33" height="39" viewBox="0 0 33 39" fill="none" xmlns="http://www.w3.org/2000/svg">
<path d="M15.9329 21.7519L12.6859 18.5127L13.5305 17.6681L15.9212 20.0589L21.4036 14.5921C19.7608 12.7303 17.2697 11.8537 14.8229 12.2764C12.376 12.6994 10.3236 14.3611 9.40085 16.6662C8.47812 18.9716 8.81721 21.5905 10.2966 23.5849C11.776 25.579 14.184 26.6632 16.6577 26.4492C19.1316 26.2349 21.3171 24.7527 22.4316 22.5338C23.5461 20.3148 23.4299 17.6767 22.1248 15.5643L15.9329 21.7519Z" fill="white"/>
<path d="M31.4123 7.47765C24.9019 7.47765 19.8855 3.82401 16.8175 0.760195C16.5794 0.527852 16.1992 0.527852 15.961 0.760195C12.8969 3.82401 7.87705 7.47765 1.37049 7.47765C1.04059 7.47765 0.772949 7.74529 0.772949 8.07518V15.9165C0.772949 22.0564 3.36263 27.4391 8.2635 31.4953L15.9931 37.8978C16.0198 37.9161 16.0476 37.9323 16.0768 37.9456L16.1404 37.9815L16.216 38.0054L16.2163 38.0056C16.2605 38.0187 16.3058 38.0268 16.3519 38.0295H16.4036C16.4495 38.0268 16.495 38.0187 16.539 38.0056L16.6146 37.9817L16.6824 37.9459L16.6826 37.9456C16.7118 37.9323 16.7396 37.9161 16.7663 37.8978L24.5194 31.495C26.4079 29.9525 28.0174 28.0965 29.2769 26.0088L29.3525 25.9332L29.3764 25.8414C31.1273 22.8284 32.0367 19.4008 32.01 15.9162V8.07485C32.01 7.74496 31.7424 7.47732 31.4125 7.47732L31.4123 7.47765ZM22.9933 14.6971C24.6214 17.1515 24.8535 20.2768 23.6058 22.9447C22.3579 25.6125 19.8107 27.4379 16.8834 27.762C13.956 28.086 11.0714 26.8618 9.27046 24.5311C7.46954 22.2007 7.01262 19.1005 8.06456 16.3497C9.11678 13.5985 11.5256 11.5944 14.4221 11.0599C17.3183 10.5257 20.2838 11.5385 22.2484 13.7333L24.9977 10.984L25.8423 11.8286L22.9933 14.6971Z" fill="white"/>
</svg>
