<svg width="65" height="65" viewBox="0 0 65 65" fill="none" xmlns="http://www.w3.org/2000/svg">
<path d="M27.9451 26.9255L27.227 25.7508C25.856 23.5967 22.9844 23.0093 20.8954 24.3798L18.6106 25.881L13.2579 24.6407C12.0832 24.3798 10.7774 24.5755 9.73335 25.228L5.03363 28.2309C3.46694 29.2753 2.68376 31.1681 3.07529 32.9957L3.66265 35.4763L2.42233 36.2594C1.05134 37.1081 0.659817 38.9358 1.57363 40.2411L3.27064 42.8519C3.66221 43.5048 4.576 43.7006 5.22897 43.2434L6.14278 42.6561C7.44815 44.2228 9.66735 44.5488 11.4299 43.4392C13.1924 42.3296 13.7147 40.1104 12.8659 38.2828L19.9806 33.7137C21.286 35.2804 23.5052 35.6065 25.2677 34.4969C27.0302 33.3873 27.5525 31.168 26.7037 29.3405L27.6176 28.7531C28.1407 28.4267 28.3365 27.5779 27.9449 26.9254L27.9451 26.9255ZM5.62135 34.236L5.22978 32.539C5.03399 31.6252 5.42556 30.6463 6.2087 30.124L7.3183 29.406L9.5375 31.6908L5.62135 34.236ZM10.1254 41.6773C9.27667 42.1995 8.16704 42.0037 7.64484 41.155C7.12259 40.3063 7.31838 39.1967 8.16709 38.6745C9.01581 38.1523 10.1254 38.348 10.6476 39.1968C11.1699 39.9804 10.9085 41.0899 10.1254 41.6773ZM11.4307 30.4502L9.21154 28.1658L10.8434 27.1213C11.3656 26.7948 12.0181 26.6642 12.6059 26.7948L15.8696 27.578L11.4307 30.4502ZM23.9633 32.735C23.1146 33.2572 22.005 33.0614 21.4828 32.2127C20.9606 31.364 21.1563 30.2544 22.0051 29.7322C22.8538 29.21 23.9634 29.4057 24.4856 30.2545C25.0078 31.0381 24.7469 32.1476 23.9633 32.735Z" fill="#ECF63D"/>
<path d="M62.475 31.2336L60.321 24.7062C60.1252 24.1188 59.5379 23.6617 58.8198 23.6617H52.2924C51.7051 23.6617 51.1828 24.184 51.1828 24.7713V33.8444C51.1828 34.3666 50.7912 34.7582 50.269 34.7582H48.5065L35.9086 20.5285C35.7779 20.3327 35.517 20.2676 35.3213 20.2676H30.4257C29.9686 20.2676 29.6426 20.594 29.6426 21.0507V28.1003C29.6426 28.5575 30.0341 28.8835 30.4913 28.8835C30.9484 28.8835 31.34 29.275 31.34 29.7973C31.34 30.3195 30.9484 30.7111 30.4261 30.7111C30.0346 30.7111 29.7081 30.5153 29.5774 30.1888C29.3817 29.7317 28.7943 29.5359 28.4027 29.8624C28.0763 30.1233 28.0112 30.5153 28.207 30.9069C28.7292 32.0165 29.9695 32.6039 31.2748 32.2122C32.058 31.9513 32.6458 31.2984 32.8415 30.4497C33.168 29.1444 32.3844 27.904 31.2097 27.5125V23.0085H34.0162L41.1305 34.8231H29.1201C28.5327 34.8231 28.0105 35.3453 28.0105 35.9327V38.0867C28.0105 38.9354 28.7285 39.6534 29.5772 39.6534H31.5355C31.5355 42.0684 33.4939 44.0268 35.9089 44.0268C38.3239 44.0268 40.2822 42.0684 40.2822 39.6534H50.6607C50.6607 42.0684 52.619 44.0268 55.034 44.0268C57.4491 44.0268 59.4074 42.0684 59.4074 39.6534H61.3657C62.2144 39.6534 62.9324 38.9354 62.9324 38.0867L62.932 34.823C63.0626 33.5832 62.8669 32.408 62.4753 31.2333L62.475 31.2336ZM35.9738 41.7427C34.7991 41.7427 33.8848 40.8289 33.8848 39.6537C33.8848 38.479 34.7986 37.5647 35.9738 37.5647C37.1485 37.5647 38.0628 38.4785 38.0628 39.6537C37.9972 40.8289 37.0834 41.7427 35.9738 41.7427ZM55.1644 41.7427C53.9897 41.7427 53.0754 40.8289 53.0754 39.6537C53.0754 38.479 53.9892 37.5647 55.1644 37.5647C56.3391 37.5647 57.2534 38.4785 57.2534 39.6537C57.2534 40.8289 56.2744 41.7427 55.1644 41.7427ZM59.2117 30.6458H54.1855C53.859 30.6458 53.5981 30.3849 53.5981 30.0584V26.5989C53.5981 26.2724 53.859 26.0115 54.1855 26.0115H57.8407C58.1016 26.0115 58.363 26.2073 58.4281 26.4687L59.6684 30.1239C59.734 30.3848 59.5382 30.6458 59.2117 30.6458Z" fill="#ECF63D"/>
</svg>
