<svg width="47" height="42" viewBox="0 0 47 42" fill="none" xmlns="http://www.w3.org/2000/svg">
<path d="M3.70848 26.7838L7.39907 31.1105C8.2143 32.066 9.48011 32.461 10.7944 32.3034L6.51229 36.3733C6.51229 36.3733 6.14179 37.6758 8.35759 38.5368C10.5743 39.3984 12.8239 34.7285 12.8239 34.7285L11.146 32.2491C11.283 32.223 11.421 32.1922 11.5597 32.1504L16.6711 35.9538C19.5819 38.5987 22.2568 37.7854 24.4961 35.876L29.4822 31.6233L29.5208 31.5902L34.5064 27.3372C36.7457 25.4277 37.9714 22.9141 35.8183 19.6225L32.8707 13.9754C32.9332 13.8452 32.9858 13.7138 33.0329 13.5827L35.216 15.63C35.216 15.63 40.1829 14.1467 39.6819 11.8217C39.1816 9.49735 37.8366 9.65792 37.8366 9.65792L33.1415 13.2442C33.5054 11.9712 33.3148 10.6589 32.4999 9.70337L28.809 5.37614C27.8904 4.29899 26.4039 3.93501 24.913 4.26526L22.4323 1.35688C21.5933 0.372243 19.6995 0.610978 18.1996 1.8899C16.7015 3.16879 16.1656 5.00237 17.0044 5.98634L19.0678 8.40616L13.6719 13.0075L13.6336 13.0405L8.23702 17.6428L6.17365 15.223C5.33392 14.2394 3.43822 14.4794 1.94025 15.7573C0.43994 17.0369 -0.0937338 18.8688 0.745076 19.8531L3.22576 22.7615C2.66495 24.1813 2.79019 25.7065 3.70874 26.784L3.70848 26.7838ZM26.8193 8.52337L28.8052 10.8519L23.9066 15.0301L21.9201 12.7012L26.8193 8.52337ZM23.3971 24.4884L23.4357 24.4554L32.4274 16.7868L34.7276 21.4162L34.7632 21.4803C35.447 22.6124 35.0451 24.5179 33.9206 25.4773L28.3559 30.2234L28.3173 30.2561L22.752 35.0019C21.6278 35.9614 19.6824 36.0571 18.6723 35.2034L18.6148 35.1586L14.4063 32.1567L23.3971 24.4884ZM12.0297 21.1369L14.0156 23.4655L9.11671 27.6436L7.13077 25.3151L12.0297 21.1369Z" fill="white"/>
<path d="M0.541992 39.082H46.0905V41.8596H0.541992V39.082Z" fill="white"/>
<path d="M34.9794 28.8197L35.209 29.89L37.5673 29.3844L35.7567 31.5508L37.5935 33.4249L35.1073 33.3658L34.3005 36.0432L32.7741 34.2431L30.2912 35.1025L31.7398 31.8762L30.7415 31.4279L28.2539 36.9654L32.4238 35.523L34.7678 38.2872L35.9146 34.4799L40.2612 34.5836L37.2318 31.4927L40.4456 27.6484L34.9794 28.8197Z" fill="white"/>
</svg>
