<svg width="57" height="57" viewBox="0 0 57 57" fill="none" xmlns="http://www.w3.org/2000/svg">
<path d="M42.2822 31.973C42.22 31.973 42.1574 31.973 42.0951 31.9108H42.0329C41.721 31.786 41.4718 31.5367 41.3469 31.2248V31.1626C41.3469 31.1004 41.2847 31.0377 41.2847 30.9755V30.7263C41.2847 22.4941 34.5495 15.759 26.3175 15.759C25.6315 15.759 25.0703 15.1979 25.0703 14.5119V9.58538C13.9696 10.2092 5.11401 19.5011 5.11401 30.7266C5.11401 42.4509 14.5934 51.9302 26.3176 51.9302C37.6054 51.9302 46.8352 43.0746 47.4588 31.9739H42.5323C42.4692 32.0356 42.4066 32.0357 42.2822 31.973ZM17.5863 16.1951C17.5863 16.1328 17.6485 16.0702 17.6485 15.9458C17.7107 15.8836 17.7107 15.8209 17.7733 15.7587C17.8355 15.6965 17.8982 15.6339 17.8982 15.5717C18.3971 15.1349 19.208 15.0727 19.6444 15.5717C19.8936 15.8209 20.0185 16.1328 20.0185 16.4447C20.0185 16.7566 19.8936 17.0686 19.6444 17.3178C19.3951 17.5671 19.0832 17.6919 18.7713 17.6919C18.4594 17.6919 18.1475 17.5671 17.8982 17.3178C17.836 17.2556 17.7734 17.193 17.7734 17.1308C17.7112 17.0685 17.7112 17.0059 17.6485 16.9437C17.6485 16.8815 17.5863 16.8188 17.5863 16.6944V16.4452C17.5241 16.3199 17.5241 16.2577 17.5863 16.1951ZM10.1028 32.0354C9.79086 32.0354 9.47895 31.9105 9.2297 31.6613C8.98043 31.412 8.85559 31.1001 8.85559 30.7882V30.5389C8.85559 30.4767 8.91779 30.3519 8.91779 30.2897C8.91779 30.2275 8.98 30.1648 9.04264 30.1026C9.10485 30.0404 9.10485 29.9778 9.16749 29.9156C9.4794 29.6036 9.85351 29.4788 10.2898 29.6036C10.352 29.6036 10.4147 29.6658 10.5391 29.6658C10.6013 29.7281 10.6639 29.7281 10.7261 29.7907C10.7883 29.8529 10.851 29.9156 10.9132 29.9156C10.9754 29.9778 11.038 30.0404 11.038 30.1026C11.1002 30.1648 11.1002 30.2275 11.1629 30.2897C11.2251 30.3519 11.2251 30.4145 11.2251 30.5389V30.7882C11.2251 31.1001 11.1002 31.412 10.851 31.6613C10.7888 31.9105 10.4769 32.0354 10.1028 32.0354ZM13.1584 39.7682C13.0961 39.8304 13.0335 39.8931 12.9713 39.8931C12.9091 39.9553 12.8464 39.9553 12.7842 40.0179C12.722 40.0801 12.6594 40.0801 12.535 40.0801H12.2857C11.9738 40.0801 11.6619 39.9553 11.4126 39.706C11.1629 39.4567 11.0381 39.2071 11.0381 38.8952C11.0381 38.5832 11.1629 38.2713 11.4122 38.0221C11.849 37.5853 12.7221 37.5853 13.1584 38.0221C13.4077 38.2714 13.5325 38.5833 13.5325 38.8952C13.5329 39.2071 13.4081 39.519 13.1584 39.7682ZM13.1584 23.5537C12.9091 23.803 12.5972 23.9278 12.2853 23.9278C11.9734 23.9278 11.6615 23.803 11.4122 23.5537C11.163 23.304 11.0381 22.9926 11.0381 22.6807C11.0381 22.3688 11.163 22.0568 11.4122 21.8076C11.849 21.3708 12.7221 21.3708 13.1584 21.8076C13.4077 22.0569 13.5325 22.3688 13.5325 22.6807C13.5329 22.9926 13.4081 23.304 13.1584 23.5537ZM19.6444 46.0046C19.3951 46.2538 19.0832 46.3787 18.7713 46.3787C18.5843 46.3787 18.4594 46.3165 18.2723 46.2538C18.1475 46.1916 17.9604 46.129 17.8356 46.0046C17.5863 45.7553 17.4615 45.4434 17.4615 45.1315V44.8822C17.4615 44.82 17.5237 44.7574 17.5237 44.633C17.5859 44.5708 17.5859 44.5081 17.6485 44.4459C17.7107 44.3837 17.7734 44.3211 17.7734 44.2589C17.8356 44.1967 17.8982 44.134 17.9604 44.134C18.0226 44.0718 18.0853 44.0718 18.1475 44.0092C18.2097 43.947 18.2723 43.947 18.3968 43.947H18.8957C18.9579 43.947 19.0206 44.0092 19.145 44.0092C19.2698 44.0092 19.2698 44.0714 19.332 44.134C19.3943 44.1962 19.4569 44.2589 19.5191 44.2589C19.5813 44.3211 19.644 44.3837 19.644 44.4459C19.7062 44.5081 19.7062 44.5708 19.7688 44.633C19.831 44.6952 19.831 44.7578 19.831 44.8822V45.1315C20.0185 45.4434 19.8936 45.7553 19.6444 46.0046ZM27.1901 47.8756C27.1279 47.9378 27.0653 48.0004 27.0031 48.0004C26.9409 48.0626 26.8782 48.0626 26.816 48.1253C26.7538 48.1875 26.6912 48.1875 26.5668 48.1875H26.3175C26.1304 48.1875 26.0056 48.1875 25.8185 48.0626C25.6937 48.0004 25.5066 47.9378 25.4444 47.8134C25.1952 47.5641 25.0703 47.2522 25.0703 46.9403C25.0703 46.6284 25.1952 46.3165 25.4444 46.0672C25.5066 46.005 25.5693 45.9424 25.6315 45.9424C25.6937 45.9424 25.7563 45.8802 25.8185 45.8175C25.8807 45.8175 25.9434 45.7553 26.0678 45.7553H26.5668C26.629 45.7553 26.6916 45.8175 26.816 45.8175C26.8782 45.8797 26.9409 45.8797 27.0031 45.9424C27.0653 46.0046 27.1279 46.0672 27.1901 46.0672C27.4394 46.3165 27.5642 46.6284 27.5642 46.9403C27.5647 47.3144 27.4398 47.6263 27.1901 47.8756ZM34.7985 46.0046C34.5492 46.2538 34.2373 46.3787 33.9254 46.3787C33.6135 46.3787 33.3016 46.2538 33.0523 46.0046C32.8031 45.7553 32.6782 45.4434 32.6782 45.1315V44.8822C32.6782 44.82 32.7404 44.7574 32.7404 44.633C32.7404 44.5708 32.8026 44.5081 32.8653 44.4459C32.9275 44.3837 32.9901 44.3211 32.9901 44.2589C33.0523 44.1967 33.115 44.134 33.1772 44.134C33.2394 44.0718 33.302 44.0718 33.3643 44.0092C33.4265 43.947 33.4891 43.947 33.6135 43.947H34.1125C34.1747 43.947 34.2995 44.0092 34.3617 44.0092C34.424 44.0092 34.4866 44.0714 34.5488 44.134C34.611 44.1962 34.6737 44.2589 34.7359 44.2589C34.7981 44.3211 34.8607 44.3837 34.8607 44.4459C34.9229 44.5081 34.9229 44.5708 34.9856 44.633C34.9856 44.6952 35.0478 44.7578 35.0478 44.8822V45.1315C35.1104 45.4434 34.9855 45.7553 34.7985 46.0046ZM26.317 42.0133C20.1429 42.0133 15.0916 36.962 15.0916 30.7879C15.0916 24.6138 20.1429 19.5625 26.317 19.5625C32.4911 19.5625 37.5425 24.6138 37.5425 30.7879C37.5425 36.962 32.4911 42.0133 26.317 42.0133ZM41.2219 39.7682C41.1597 39.8304 41.0971 39.8931 41.0349 39.8931C40.9726 39.8931 40.91 39.9553 40.8478 40.0179C40.7856 40.0801 40.723 40.0801 40.5985 40.0801H40.3493C40.1622 40.0801 40.0374 40.0179 39.8503 39.9553C39.6633 39.8931 39.5384 39.8304 39.4762 39.706C39.2265 39.519 39.1016 39.2071 39.1016 38.8952V38.6459C39.1016 38.5837 39.1639 38.521 39.1639 38.3966C39.2261 38.3344 39.2261 38.2718 39.2887 38.1474C39.3509 38.0852 39.4136 38.0225 39.4136 37.9603C39.9125 37.4613 40.7234 37.4613 41.1597 37.9603C41.2219 38.0225 41.2846 38.0852 41.2846 38.1474C41.3468 38.2096 41.3468 38.2722 41.4094 38.3966C41.4716 38.4588 41.4716 38.5215 41.4716 38.6459V38.8952C41.5965 39.2071 41.4716 39.519 41.2219 39.7682ZM27.5643 13.3261V5.21875C40.6606 5.84256 51.2001 16.3818 51.8861 29.5405H43.7787C43.1553 20.872 36.2329 13.9496 27.5642 13.326L27.5643 13.3261ZM26.3167 22.0568C21.5146 22.0568 17.586 25.9858 17.586 30.7874C17.586 35.5895 21.5151 39.5181 26.3167 39.5181C31.1188 39.5181 35.0474 35.5891 35.0474 30.7874C35.0478 25.9858 31.1188 22.0568 26.3167 22.0568ZM26.3167 35.7767C23.5726 35.7767 21.3275 33.5317 21.3275 30.7875C21.3275 28.0434 23.5726 25.7984 26.3167 25.7984C29.0608 25.7984 31.3059 28.0434 31.3059 30.7875C31.3059 33.5317 29.0608 35.7767 26.3167 35.7767ZM28.8115 30.788C28.8115 32.16 27.6892 33.2823 26.3172 33.2823C24.9452 33.2823 23.8228 32.16 23.8228 30.788C23.8228 29.416 24.9452 28.2937 26.3172 28.2937C27.6887 28.2932 28.8115 29.416 28.8115 30.788Z" fill="#ECF63D"/>
</svg>
