<svg width="65" height="65" viewBox="0 0 65 65" fill="none" xmlns="http://www.w3.org/2000/svg">
<path d="M32.4998 5.09766C32.4998 5.09766 26.7738 14.6807 11.4998 14.6807C11.4998 47.2657 32.4998 58.7597 32.4998 58.7597C32.4998 58.7597 53.4998 47.2657 53.4998 14.6807C38.2258 14.6807 32.4998 5.09766 32.4998 5.09766ZM32.4998 9.94866C33.4518 11.0407 33.3993 11.4187 35.2333 12.7312C38.4253 15.0202 43.5003 16.8962 49.7688 17.5997C49.1598 31.4002 44.7323 40.8467 40.2138 46.8317C36.7768 51.3747 34.1238 53.4047 32.4998 54.5072C30.8793 53.4047 28.2228 51.3747 24.7893 46.8317C20.2673 40.8467 15.8398 31.4002 15.2343 17.5997C21.4993 16.8997 26.5743 15.0202 29.7663 12.7347C31.6003 11.4152 31.5513 11.0442 32.4998 9.94866ZM32.4998 14.8802C32.1778 15.1602 32.2443 15.2582 31.7998 15.5767C28.6918 17.8062 24.2748 19.3077 19.2663 20.2877C20.3338 31.5927 23.8233 39.7407 27.5858 44.7177C29.8818 47.7557 31.1383 48.5572 32.4998 49.6457C33.8648 48.5607 35.1248 47.7557 37.4208 44.7177C41.1833 39.7407 44.6728 31.5962 45.7403 20.2947C40.7283 19.3147 36.3078 17.8097 33.1963 15.5767C32.7553 15.2617 32.8218 15.1602 32.4998 14.8802Z" fill="#ECF63D"/>
</svg>
