<svg width="56" height="57" viewBox="0 0 56 57" fill="none" xmlns="http://www.w3.org/2000/svg">
<path d="M27.1463 22.5983C27.1463 22.1269 27.5285 21.7447 27.9999 21.7447H36.5364V18.3301H21.1707V22.5983C21.1707 22.8838 21.0282 23.1501 20.7908 23.3087L16.0489 26.4694V31.9884C16.0489 32.4598 15.6667 32.842 15.1952 32.842C14.7238 32.842 14.3416 32.4598 14.3416 31.9884V26.8665H10.927V38.8176H15.1952C15.3637 38.8179 15.5287 38.8679 15.6689 38.9609L20.5733 42.2321H40.8052V23.4519H28.0005C27.5291 23.4519 27.1469 23.0696 27.1469 22.5982L27.1463 22.5983ZM16.0488 36.2567C16.0488 36.7281 15.6666 37.1103 15.1952 37.1103C14.7238 37.1103 14.3415 36.7281 14.3415 36.2567V35.403C14.3415 34.9316 14.7238 34.5494 15.1952 34.5494C15.6666 34.5494 16.0488 34.9316 16.0488 35.403V36.2567ZM23.7317 21.7447H24.5853C25.0567 21.7447 25.439 22.1269 25.439 22.5983C25.439 23.0697 25.0567 23.452 24.5853 23.452H23.7317C23.2603 23.452 22.878 23.0697 22.878 22.5983C22.878 22.1269 23.2603 21.7447 23.7317 21.7447ZM38.2437 38.8176H18.6098C18.1384 38.8176 17.7561 38.4354 17.7561 37.964C17.7561 37.4926 18.1384 37.1103 18.6098 37.1103H38.2437C38.7151 37.1103 39.0974 37.4926 39.0974 37.964C39.0974 38.4354 38.7151 38.8176 38.2437 38.8176ZM38.2437 35.403H18.6098C18.1384 35.403 17.7561 35.0208 17.7561 34.5494C17.7561 34.078 18.1384 33.6958 18.6098 33.6958H38.2437C38.7151 33.6958 39.0974 34.078 39.0974 34.5494C39.0974 35.0208 38.7151 35.403 38.2437 35.403ZM38.2437 31.9885H18.6098C18.1384 31.9885 17.7561 31.6062 17.7561 31.1348C17.7561 30.6634 18.1384 30.2812 18.6098 30.2812H38.2437C38.7151 30.2812 39.0974 30.6634 39.0974 31.1348C39.0974 31.6062 38.7151 31.9885 38.2437 31.9885ZM39.0974 27.7202C39.0974 27.9466 39.0074 28.1638 38.8474 28.3239C38.6873 28.4839 38.4701 28.5739 38.2437 28.5739H18.6098C18.1384 28.5739 17.7561 28.1916 17.7561 27.7202C17.7561 27.2488 18.1384 26.8666 18.6098 26.8666H38.2437C38.4701 26.8666 38.6873 26.9565 38.8474 27.1166C39.0074 27.2766 39.0974 27.4938 39.0974 27.7202Z" fill="#ECF63D"/>
<path d="M7.51245 30.2812H9.21975V35.4031H7.51245V30.2812Z" fill="#ECF63D"/>
<path d="M23.7317 43.9395H33.9755V45.6468H23.7317V43.9395Z" fill="#ECF63D"/>
<path d="M4.0979 22.5986H5.8052V42.2325H4.0979V22.5986Z" fill="#ECF63D"/>
<path d="M51.2865 26.0127H49.3411V39.6711H51.2865L51.902 37.8254V27.8587L51.2865 26.0127Z" fill="#ECF63D"/>
<path d="M28 14.916H29.7073V16.6233H28V14.916Z" fill="#ECF63D"/>
<path d="M45.9265 31.1348H47.6338V34.5494H45.9265V31.1348Z" fill="#ECF63D"/>
<path d="M42.5122 23.4521H44.2195V42.2324H42.5122V23.4521Z" fill="#ECF63D"/>
<path d="M16.0488 11.501H41.6583V13.2083H16.0488V11.501Z" fill="#ECF63D"/>
</svg>
