<svg width="57" height="57" viewBox="0 0 57 57" fill="none" xmlns="http://www.w3.org/2000/svg">
<path d="M16.7352 41.1481C16.7352 38.4181 14.5299 36.2129 11.8 36.2129C9.07011 36.2129 6.86481 38.4182 6.86481 41.1481C6.86481 43.878 9.07011 46.0833 11.8 46.0833C14.5299 46.0833 16.7352 43.8785 16.7352 41.1481Z" fill="#ECF63D"/>
<path d="M48.9709 41.1481C48.9709 38.4181 46.7656 36.2129 44.0357 36.2129C41.3058 36.2129 39.0482 38.4182 39.0482 41.1481C39.0482 43.878 41.2535 46.0833 43.9834 46.0833C46.7134 46.0833 48.9709 43.8785 48.9709 41.1481Z" fill="#ECF63D"/>
<path d="M20.7774 24.9252C21.775 23.1401 21.775 20.9876 20.7774 19.2025L15.7899 10.2773L10.8024 19.2025C9.8048 20.9876 9.8048 23.1401 10.8024 24.9252C11.7472 26.6576 13.4801 27.813 15.4752 27.9181H15.8426H16.21C18.047 27.813 19.7798 26.7105 20.7774 24.9252Z" fill="#ECF63D"/>
<path d="M54.1686 33.7441C53.5384 30.384 51.4909 29.3864 46.8708 28.2837C42.513 27.2338 38.9955 25.396 35.5832 23.5586C31.4356 21.3533 27.4456 19.2535 22.4057 18.9385C23.4033 21.091 23.3505 23.5586 22.1956 25.6588C20.988 27.8641 18.7831 29.2813 16.2628 29.4391H15.7904H15.318C12.7981 29.2818 10.5928 27.8641 9.38517 25.6588C8.23021 23.6113 8.17756 21.1437 9.12281 19.0434C4.92282 19.8314 1.77271 23.4539 1.77271 27.8118V33.5868C1.77271 36.1595 3.19048 38.3643 5.34291 39.5196C6.07769 36.6319 8.6503 34.4793 11.7478 34.4793C15.1079 34.4793 17.9429 36.9992 18.3631 40.3071H37.4213C37.8414 36.9993 40.6241 34.4793 44.0366 34.4793C47.3968 34.4793 50.2318 36.9992 50.652 40.3071H51.0721C51.6496 40.3071 52.2797 39.782 52.6995 39.3623C53.9598 37.9445 54.5373 35.8443 54.1694 33.7441L54.1686 33.7441Z" fill="#ECF63D"/>
</svg>
