<svg width="58" height="59" viewBox="0 0 58 59" fill="none" xmlns="http://www.w3.org/2000/svg">
<g clip-path="url(#clip0_236_3405)">
<path d="M55.4619 35.1678H54.4466V32.8834C54.4466 29.0984 51.3782 26.03 47.5932 26.03H44.3854L41.0918 19.1565C40.3613 17.6324 38.6309 16.6475 36.683 16.6475H35.8828V11.9566C35.8828 11.2556 35.3145 10.6875 34.6137 10.6875C31.2387 10.6875 28.4802 13.3228 28.2807 16.6477H25.1218C20.9973 16.6477 17.1023 17.9011 14.1547 20.177C11.5929 22.1551 9.99063 24.7039 9.52652 27.4826C6.67568 29.0805 4.57986 31.8652 3.90958 35.168H2.53854C1.13668 35.1678 0.000244141 36.3041 0.000244141 37.7061C0.000244141 39.1081 1.13668 40.2444 2.53854 40.2444H3.68075V40.793C3.68075 41.3311 4.117 41.7673 4.65508 41.7673H6.61032C6.61032 41.2481 6.65699 40.7399 6.74184 40.2444C7.07013 38.3265 8.00617 36.6146 9.34515 35.3136C10.9675 33.7373 13.1786 32.7639 15.6138 32.7639C20.5784 32.7639 24.6173 36.8028 24.6173 41.7673H33.5163C33.5163 36.8028 37.5552 32.7639 42.5198 32.7639C44.9372 32.7639 47.1334 33.7234 48.7524 35.2792C50.1105 36.5844 51.0606 38.3094 51.3918 40.2443C51.4765 40.7398 51.5233 41.2481 51.5233 41.7672H53.4723C54.0104 41.7672 54.4466 41.331 54.4466 40.7929V40.2443H55.4619C56.8639 40.2443 58.0004 39.1078 58.0004 37.706C58.0004 36.3041 56.8638 35.1678 55.4619 35.1678ZM17.2656 26.03H15.103C14.5326 26.03 13.9724 26.0723 13.4244 26.1531C14.1827 24.5464 15.526 23.1427 17.2654 22.0825L17.2656 26.03ZM27.2698 26.0299H20.5998V20.6285C22.0016 20.2195 23.5264 19.993 25.1218 19.993H27.2698V26.0299ZM30.6039 26.0299V19.9931H36.6831C37.3715 19.9931 37.9313 20.3028 38.0747 20.6023L40.6756 26.03H30.6039V26.0299Z" fill="#ECF63D"/>
<path d="M15.6139 36.1426C12.5074 36.1426 9.98915 38.6608 9.98915 41.7673C9.98915 44.8738 12.5074 47.3921 15.6139 47.3921C18.7204 47.3921 21.2387 44.8738 21.2387 41.7673C21.2387 38.6608 18.7203 36.1426 15.6139 36.1426ZM15.6139 43.7556C14.5158 43.7556 13.6254 42.8654 13.6254 41.7671C13.6254 40.669 14.5156 39.7786 15.6139 39.7786C16.7122 39.7786 17.6024 40.6688 17.6024 41.7671C17.6024 42.8654 16.7121 43.7556 15.6139 43.7556Z" fill="#ECF63D"/>
<path d="M42.5198 36.1426C39.4133 36.1426 36.895 38.6608 36.895 41.7673C36.895 44.8738 39.4133 47.3921 42.5198 47.3921C45.6263 47.3921 48.1445 44.8738 48.1445 41.7673C48.1445 38.6608 45.6262 36.1426 42.5198 36.1426ZM42.5198 43.7556C41.4216 43.7556 40.5312 42.8654 40.5312 41.7671C40.5312 40.669 41.4215 39.7786 42.5198 39.7786C43.6179 39.7786 44.5083 40.6688 44.5083 41.7671C44.5083 42.8654 43.6181 43.7556 42.5198 43.7556Z" fill="#ECF63D"/>
</g>
<defs>
<clipPath id="clip0_236_3405">
<rect width="58" height="58" fill="white" transform="translate(0.000244141 0.0400391)"/>
</clipPath>
</defs>
</svg>
