<svg width="55" height="55" viewBox="0 0 55 55" fill="none" xmlns="http://www.w3.org/2000/svg">
<path d="M28.9891 6.67969C28.1678 6.67969 27.502 7.34557 27.502 8.16681C27.502 8.98806 28.1678 9.65394 28.9891 9.65394C38.0232 9.65394 45.3475 16.9777 45.3475 26.0123C45.3475 26.8336 46.0134 27.4995 46.8346 27.4995C47.6558 27.4995 48.3217 26.8336 48.3217 26.0123C48.3217 15.3356 39.6658 6.67969 28.9891 6.67969Z" fill="#121212"/>
<path fill-rule="evenodd" clip-rule="evenodd" d="M17.3291 12.5026C15.5174 10.702 12.5792 10.6788 10.7619 12.4853C6.27458 16.945 5.21532 24.0246 8.95047 29.3638C13.9264 36.4784 19.0578 41.661 25.6454 46.1657C30.9837 49.8169 37.9749 48.6019 42.3811 44.2225C44.2374 42.3776 44.3658 39.3741 42.4694 37.489L38.3645 33.4093C36.5959 31.6516 33.7514 31.5597 31.8918 33.2308L29.8962 35.0236C29.3475 35.5169 28.5661 35.5896 27.9795 35.2348C24.1043 32.8902 21.954 30.7328 19.6356 26.9427C19.2841 26.3684 19.3538 25.6043 19.8474 25.0612L21.6512 23.0781C23.3382 21.2236 23.2443 18.3814 21.4713 16.6194L17.3291 12.5026ZM12.8585 14.5948C13.5005 13.9568 14.5654 13.9492 15.2326 14.6121L19.3753 18.7296C20.0346 19.3848 20.0535 20.4159 19.4517 21.0778L17.6478 23.0608C16.3114 24.53 16.0219 26.7351 17.0988 28.4955C19.6651 32.6903 22.1573 35.1889 26.4405 37.7802C28.2021 38.8461 30.4092 38.5623 31.8844 37.2368L33.8797 35.4436C34.5516 34.8401 35.6042 34.8601 36.2678 35.5196L40.3727 39.5996C41.1139 40.3362 40.9841 41.4184 40.2847 42.1138C36.7412 45.6354 31.3186 46.4431 27.3246 43.7118C21.0614 39.4284 16.1788 34.5103 11.3877 27.6602C8.56776 23.6284 9.2871 18.1452 12.8586 14.5956L12.8585 14.5948Z" fill="#121212"/>
<path d="M28.9891 18.5769C28.1678 18.5769 27.502 19.2428 27.502 20.064C27.502 20.8853 28.1678 21.5512 28.9891 21.5512C31.4531 21.5512 33.4505 23.5485 33.4505 26.0125C33.4505 26.8338 34.1163 27.4997 34.9376 27.4997C35.7588 27.4997 36.4247 26.8338 36.4247 26.0125C36.4247 21.906 33.0956 18.5769 28.9891 18.5769Z" fill="#121212"/>
<path d="M27.502 14.1153C27.502 13.2941 28.1678 12.6282 28.9891 12.6282C36.3809 12.6282 42.3732 18.6205 42.3732 26.0123C42.3732 26.8336 41.7073 27.4994 40.8861 27.4994C40.0649 27.4994 39.399 26.8336 39.399 26.0123C39.399 20.263 34.7384 15.6024 28.9891 15.6024C28.1678 15.6024 27.502 14.9365 27.502 14.1153Z" fill="#121212"/>
</svg>
