<svg xmlns="http://www.w3.org/2000/svg" xmlns:xlink="http://www.w3.org/1999/xlink" width="155" zoomAndPan="magnify" viewBox="0 0 116.25 41.25" height="55" preserveAspectRatio="xMidYMid meet" version="1.0"><defs><g/><clipPath id="4b0f5ec656"><path d="M 5 13 L 7 13 L 7 30.984375 L 5 30.984375 Z M 5 13 " clip-rule="nonzero"/></clipPath><clipPath id="7e463be765"><path d="M 2.820312 7.414062 L 30.8125 7.414062 L 30.8125 16 L 2.820312 16 Z M 2.820312 7.414062 " clip-rule="nonzero"/></clipPath><clipPath id="10d9f46f4c"><path d="M 3 29 L 30.8125 29 L 30.8125 30.984375 L 3 30.984375 Z M 3 29 " clip-rule="nonzero"/></clipPath><clipPath id="85eb89ebda"><path d="M 7 22 L 17 22 L 17 30.984375 L 7 30.984375 Z M 7 22 " clip-rule="nonzero"/></clipPath><clipPath id="1634124cc5"><path d="M 17 22 L 27 22 L 27 30.984375 L 17 30.984375 Z M 17 22 " clip-rule="nonzero"/></clipPath><clipPath id="0ac9fd98ce"><path d="M 80 21 L 80.332031 21 L 80.332031 22 L 80 22 Z M 80 21 " clip-rule="nonzero"/></clipPath><clipPath id="6360516ba7"><path d="M 35.398438 20 L 76 20 L 76 31 L 35.398438 31 Z M 35.398438 20 " clip-rule="nonzero"/></clipPath></defs><g fill="#ecf63d" fill-opacity="1"><g transform="translate(33.810067, 15.40664)"><g><path d="M 11.269531 -2.894531 C 11.269531 -4.246094 9.980469 -5.34375 8.628906 -5.34375 L 3.273438 -5.34375 L 3.273438 -3.714844 L 8.628906 -3.714844 C 9.085938 -3.714844 9.578125 -3.347656 9.578125 -2.894531 L 9.578125 -2.464844 C 9.578125 -1.921875 9.261719 -1.65625 8.628906 -1.65625 L 3.273438 -1.65625 C 2.652344 -1.65625 2.335938 -1.921875 2.335938 -2.464844 L 2.335938 -6.632812 C 2.335938 -7.074219 2.816406 -7.453125 3.273438 -7.453125 L 11.132812 -7.453125 L 11.132812 -9.070312 L 3.273438 -9.070312 C 1.933594 -9.070312 0.617188 -7.984375 0.617188 -6.632812 L 0.617188 -2.464844 C 0.617188 -1.023438 1.808594 -0.0117188 3.273438 -0.0117188 L 8.628906 -0.0117188 C 10.082031 -0.0117188 11.269531 -1.023438 11.269531 -2.464844 Z M 11.269531 -2.894531 "/></g></g></g><g fill="#ecf63d" fill-opacity="1"><g transform="translate(46.038542, 15.40664)"><g><path d="M 11.21875 -6.632812 C 11.21875 -7.972656 9.929688 -9.070312 8.578125 -9.070312 L 0.734375 -9.070312 L 0.734375 -7.453125 L 8.578125 -7.453125 C 9.035156 -7.453125 9.527344 -7.074219 9.527344 -6.632812 L 9.527344 -2.464844 C 9.527344 -1.921875 9.210938 -1.65625 8.578125 -1.65625 L 3.222656 -1.65625 C 2.601562 -1.65625 2.285156 -1.921875 2.285156 -2.464844 L 2.285156 -2.894531 C 2.285156 -3.347656 2.765625 -3.714844 3.222656 -3.714844 L 8.578125 -3.714844 L 8.578125 -5.34375 L 3.222656 -5.34375 C 1.894531 -5.34375 0.582031 -4.269531 0.582031 -2.894531 L 0.582031 -2.464844 C 0.582031 -1.023438 1.78125 -0.0117188 3.222656 -0.0117188 L 8.578125 -0.0117188 C 10.03125 -0.0117188 11.21875 -1.023438 11.21875 -2.464844 Z M 11.21875 -6.632812 "/></g></g></g><g fill="#ecf63d" fill-opacity="1"><g transform="translate(58.267017, 15.40664)"><g><path d="M 11.625 -2.957031 C 11.625 -3.539062 11.398438 -4.070312 10.953125 -4.546875 C 11.398438 -5.015625 11.625 -5.535156 11.625 -6.128906 L 11.625 -6.621094 C 11.625 -8.0625 10.425781 -9.058594 8.984375 -9.058594 L 0.554688 -9.058594 L 0.554688 -0.0117188 L 2.261719 -0.0117188 L 2.261719 -7.441406 L 8.984375 -7.441406 C 9.601562 -7.441406 9.917969 -7.164062 9.917969 -6.621094 L 9.917969 -6.128906 C 9.917969 -5.621094 9.601562 -5.371094 8.984375 -5.371094 L 2.792969 -5.371094 L 2.792969 -3.703125 L 8.984375 -3.703125 C 9.476562 -3.703125 9.917969 -3.425781 9.917969 -2.957031 L 9.917969 -0.0117188 L 11.625 -0.0117188 Z M 11.625 -2.957031 "/></g></g></g><g fill="#ecf63d" fill-opacity="1"><g transform="translate(71.139755, 15.40664)"><g><path d="M 11.21875 -6.632812 C 11.21875 -7.972656 9.929688 -9.070312 8.578125 -9.070312 L 0.734375 -9.070312 L 0.734375 -7.453125 L 8.578125 -7.453125 C 9.035156 -7.453125 9.527344 -7.074219 9.527344 -6.632812 L 9.527344 -2.464844 C 9.527344 -1.921875 9.210938 -1.65625 8.578125 -1.65625 L 3.222656 -1.65625 C 2.601562 -1.65625 2.285156 -1.921875 2.285156 -2.464844 L 2.285156 -2.894531 C 2.285156 -3.347656 2.765625 -3.714844 3.222656 -3.714844 L 8.578125 -3.714844 L 8.578125 -5.34375 L 3.222656 -5.34375 C 1.894531 -5.34375 0.582031 -4.269531 0.582031 -2.894531 L 0.582031 -2.464844 C 0.582031 -1.023438 1.78125 -0.0117188 3.222656 -0.0117188 L 8.578125 -0.0117188 C 10.03125 -0.0117188 11.21875 -1.023438 11.21875 -2.464844 Z M 11.21875 -6.632812 "/></g></g></g><g fill="#ecf63d" fill-opacity="1"><g transform="translate(83.36823, 15.40664)"><g><path d="M 11.269531 -2.894531 C 11.269531 -4.246094 9.980469 -5.34375 8.628906 -5.34375 L 3.273438 -5.34375 L 3.273438 -3.714844 L 8.628906 -3.714844 C 9.085938 -3.714844 9.578125 -3.347656 9.578125 -2.894531 L 9.578125 -2.464844 C 9.578125 -1.921875 9.261719 -1.65625 8.628906 -1.65625 L 3.273438 -1.65625 C 2.652344 -1.65625 2.335938 -1.921875 2.335938 -2.464844 L 2.335938 -6.632812 C 2.335938 -7.074219 2.816406 -7.453125 3.273438 -7.453125 L 11.132812 -7.453125 L 11.132812 -9.070312 L 3.273438 -9.070312 C 1.933594 -9.070312 0.617188 -7.984375 0.617188 -6.632812 L 0.617188 -2.464844 C 0.617188 -1.023438 1.808594 -0.0117188 3.273438 -0.0117188 L 8.628906 -0.0117188 C 10.082031 -0.0117188 11.269531 -1.023438 11.269531 -2.464844 Z M 11.269531 -2.894531 "/></g></g></g><g fill="#ecf63d" fill-opacity="1"><g transform="translate(95.596705, 15.40664)"><g><path d="M 11.09375 -6.621094 C 11.09375 -8.074219 9.855469 -9.058594 8.453125 -9.058594 L 3.082031 -9.058594 C 1.679688 -9.058594 0.429688 -8.085938 0.429688 -6.621094 L 0.429688 -2.464844 C 0.429688 -1.0625 1.742188 -0.0117188 3.082031 -0.0117188 L 10.941406 -0.0117188 L 10.941406 -1.628906 L 3.082031 -1.628906 C 2.628906 -1.628906 2.148438 -2.007812 2.148438 -2.464844 L 2.148438 -6.621094 C 2.148438 -7.164062 2.464844 -7.441406 3.082031 -7.441406 L 8.453125 -7.441406 C 9.070312 -7.441406 9.386719 -7.164062 9.386719 -6.621094 L 9.386719 -6.179688 C 9.386719 -5.738281 8.894531 -5.371094 8.453125 -5.371094 L 3.082031 -5.371094 L 3.082031 -3.738281 L 8.453125 -3.738281 C 9.804688 -3.738281 11.09375 -4.839844 11.09375 -6.179688 Z M 11.09375 -6.621094 "/></g></g></g><path fill="#ecf63d" d="M 28.125 28.359375 C 27.808594 28.359375 27.546875 28.101562 27.546875 27.78125 L 27.546875 13.957031 C 27.546875 13.636719 27.808594 13.378906 28.125 13.378906 C 28.445312 13.378906 28.703125 13.636719 28.703125 13.957031 L 28.703125 27.78125 C 28.703125 28.101562 28.445312 28.359375 28.125 28.359375 Z M 28.125 28.359375 " fill-opacity="1" fill-rule="nonzero"/><g clip-path="url(#4b0f5ec656)"><path fill="#ecf63d" d="M 5.648438 31.105469 C 5.328125 31.105469 5.070312 30.847656 5.070312 30.53125 L 5.070312 13.929688 C 5.070312 13.609375 5.328125 13.351562 5.648438 13.351562 C 5.96875 13.351562 6.226562 13.609375 6.226562 13.929688 L 6.226562 30.53125 C 6.226562 30.847656 5.96875 31.105469 5.648438 31.105469 Z M 5.648438 31.105469 " fill-opacity="1" fill-rule="nonzero"/></g><g clip-path="url(#7e463be765)"><path fill="#ecf63d" d="M 30.292969 15.5 C 30.203125 15.5 30.113281 15.480469 30.027344 15.4375 L 16.886719 8.664062 L 3.746094 15.4375 C 3.460938 15.582031 3.113281 15.472656 2.96875 15.1875 C 2.820312 14.90625 2.933594 14.554688 3.21875 14.410156 L 16.621094 7.5 C 16.789062 7.414062 16.984375 7.414062 17.152344 7.5 L 30.558594 14.410156 C 30.839844 14.554688 30.953125 14.90625 30.804688 15.1875 C 30.703125 15.386719 30.5 15.5 30.292969 15.5 Z M 30.292969 15.5 " fill-opacity="1" fill-rule="nonzero"/></g><g clip-path="url(#10d9f46f4c)"><path fill="#ecf63d" d="M 30.199219 31.105469 L 3.578125 31.105469 C 3.257812 31.105469 3 30.847656 3 30.53125 C 3 30.210938 3.257812 29.953125 3.578125 29.953125 L 30.199219 29.953125 C 30.515625 29.953125 30.773438 30.210938 30.773438 30.53125 C 30.773438 30.847656 30.515625 31.105469 30.199219 31.105469 Z M 30.199219 31.105469 " fill-opacity="1" fill-rule="nonzero"/></g><g clip-path="url(#85eb89ebda)"><path fill="#ecf63d" d="M 16.054688 24.953125 L 15.4375 24.953125 L 15.039062 23.710938 C 14.828125 23.074219 14.242188 22.644531 13.574219 22.644531 L 10.050781 22.644531 C 9.382812 22.644531 8.785156 23.074219 8.585938 23.710938 L 8.1875 24.953125 L 7.570312 24.953125 C 7.300781 24.953125 7.082031 25.171875 7.082031 25.441406 L 7.082031 25.722656 C 7.082031 25.988281 7.300781 26.210938 7.570312 26.210938 L 7.742188 26.210938 C 7.640625 26.65625 7.589844 27.113281 7.589844 27.574219 L 7.589844 29.914062 C 7.589844 30.183594 7.808594 30.402344 8.078125 30.402344 L 8.894531 30.402344 C 9.164062 30.402344 9.382812 30.183594 9.382812 29.914062 L 9.382812 29.167969 L 14.261719 29.167969 L 14.261719 29.914062 C 14.261719 30.183594 14.480469 30.402344 14.75 30.402344 L 15.566406 30.402344 C 15.835938 30.402344 16.054688 30.183594 16.054688 29.914062 L 16.054688 27.5625 C 16.054688 27.105469 16.003906 26.648438 15.90625 26.199219 L 16.074219 26.199219 C 16.34375 26.199219 16.5625 25.980469 16.5625 25.710938 L 16.5625 25.433594 C 16.542969 25.171875 16.324219 24.953125 16.054688 24.953125 Z M 9.046875 25.453125 L 9.511719 24 C 9.59375 23.757812 9.8125 23.601562 10.050781 23.601562 L 13.574219 23.601562 C 13.824219 23.601562 14.042969 23.757812 14.113281 24 L 14.582031 25.453125 C 14.601562 25.523438 14.550781 25.582031 14.480469 25.582031 L 9.144531 25.582031 C 9.074219 25.589844 9.023438 25.523438 9.046875 25.453125 Z M 10.0625 27.832031 L 9.074219 27.832031 C 8.90625 27.832031 8.777344 27.703125 8.777344 27.535156 L 8.777344 27.066406 C 8.777344 26.886719 8.945312 26.738281 9.125 26.765625 L 10.039062 26.914062 C 10.160156 26.9375 10.257812 27.027344 10.289062 27.144531 L 10.359375 27.464844 C 10.398438 27.652344 10.257812 27.832031 10.0625 27.832031 Z M 14.839844 27.535156 C 14.839844 27.703125 14.710938 27.832031 14.542969 27.832031 L 13.554688 27.832031 C 13.367188 27.832031 13.226562 27.652344 13.265625 27.472656 L 13.335938 27.15625 C 13.367188 27.035156 13.457031 26.945312 13.585938 26.925781 L 14.5 26.777344 C 14.679688 26.746094 14.851562 26.886719 14.851562 27.074219 L 14.851562 27.535156 Z M 14.839844 27.535156 " fill-opacity="1" fill-rule="nonzero"/></g><g clip-path="url(#1634124cc5)"><path fill="#ecf63d" d="M 26.183594 24.953125 L 25.566406 24.953125 L 25.167969 23.710938 C 24.957031 23.074219 24.371094 22.644531 23.703125 22.644531 L 20.179688 22.644531 C 19.511719 22.644531 18.914062 23.074219 18.714844 23.710938 L 18.316406 24.953125 L 17.699219 24.953125 C 17.429688 24.953125 17.210938 25.171875 17.210938 25.441406 L 17.210938 25.722656 C 17.210938 25.988281 17.429688 26.210938 17.699219 26.210938 L 17.871094 26.210938 C 17.769531 26.65625 17.71875 27.113281 17.71875 27.574219 L 17.71875 29.914062 C 17.71875 30.183594 17.9375 30.402344 18.207031 30.402344 L 19.023438 30.402344 C 19.292969 30.402344 19.511719 30.183594 19.511719 29.914062 L 19.511719 29.167969 L 24.390625 29.167969 L 24.390625 29.914062 C 24.390625 30.183594 24.609375 30.402344 24.878906 30.402344 L 25.695312 30.402344 C 25.964844 30.402344 26.183594 30.183594 26.183594 29.914062 L 26.183594 27.5625 C 26.183594 27.105469 26.132812 26.648438 26.035156 26.199219 L 26.203125 26.199219 C 26.472656 26.199219 26.691406 25.980469 26.691406 25.710938 L 26.691406 25.433594 C 26.671875 25.171875 26.453125 24.953125 26.183594 24.953125 Z M 19.171875 25.453125 L 19.640625 24 C 19.722656 23.757812 19.941406 23.601562 20.179688 23.601562 L 23.703125 23.601562 C 23.953125 23.601562 24.171875 23.757812 24.242188 24 L 24.710938 25.453125 C 24.730469 25.523438 24.679688 25.582031 24.609375 25.582031 L 19.273438 25.582031 C 19.203125 25.589844 19.152344 25.523438 19.171875 25.453125 Z M 20.1875 27.832031 L 19.203125 27.832031 C 19.035156 27.832031 18.90625 27.703125 18.90625 27.535156 L 18.90625 27.066406 C 18.90625 26.886719 19.074219 26.738281 19.253906 26.765625 L 20.167969 26.914062 C 20.289062 26.9375 20.386719 27.027344 20.417969 27.144531 L 20.488281 27.464844 C 20.527344 27.652344 20.386719 27.832031 20.1875 27.832031 Z M 24.96875 27.535156 C 24.96875 27.703125 24.839844 27.832031 24.667969 27.832031 L 23.683594 27.832031 C 23.496094 27.832031 23.355469 27.652344 23.394531 27.472656 L 23.464844 27.15625 C 23.496094 27.035156 23.585938 26.945312 23.714844 26.925781 L 24.628906 26.777344 C 24.808594 26.746094 24.976562 26.886719 24.976562 27.074219 L 24.976562 27.535156 Z M 24.96875 27.535156 " fill-opacity="1" fill-rule="nonzero"/></g><path fill="#ecf63d" d="M 21.921875 14.753906 L 11.851562 14.753906 C 11.535156 14.753906 11.277344 14.496094 11.277344 14.175781 C 11.277344 13.859375 11.535156 13.597656 11.851562 13.597656 L 21.921875 13.597656 C 22.242188 13.597656 22.5 13.859375 22.5 14.175781 C 22.5 14.496094 22.242188 14.753906 21.921875 14.753906 Z M 21.921875 14.753906 " fill-opacity="1" fill-rule="nonzero"/><path fill="#ecf63d" d="M 21.921875 17.332031 L 11.851562 17.332031 C 11.535156 17.332031 11.277344 17.074219 11.277344 16.753906 C 11.277344 16.4375 11.535156 16.175781 11.851562 16.175781 L 21.921875 16.175781 C 22.242188 16.175781 22.5 16.4375 22.5 16.753906 C 22.5 17.074219 22.242188 17.332031 21.921875 17.332031 Z M 21.921875 17.332031 " fill-opacity="1" fill-rule="nonzero"/><g fill="#ecf63d" fill-opacity="1"><g transform="translate(89.417294, 28.714715)"><g><path d="M 8.613281 -2.449219 C 8.613281 -3.578125 8.476562 -3.96875 7.949219 -4.519531 C 8.386719 -4.984375 8.613281 -5.5 8.613281 -6.089844 L 8.613281 -6.578125 C 8.613281 -8.011719 7.394531 -9.003906 5.988281 -9.003906 L 3 -9.003906 C 1.582031 -9.003906 0.375 -8.023438 0.375 -6.578125 C 0.375 -5.410156 0.515625 -5.046875 1.042969 -4.519531 C 0.601562 -4.042969 0.375 -3.515625 0.375 -2.9375 L 0.375 -2.449219 C 0.375 -1.015625 1.570312 -0.0117188 3 -0.0117188 L 5.988281 -0.0117188 C 7.410156 -0.0117188 8.613281 -1.03125 8.613281 -2.449219 Z M 6.917969 -6.089844 C 6.917969 -5.585938 6.605469 -5.335938 5.988281 -5.335938 L 3 -5.335938 C 2.386719 -5.335938 2.070312 -5.585938 2.070312 -6.089844 L 2.070312 -6.578125 C 2.070312 -7.121094 2.386719 -7.394531 3 -7.394531 L 5.988281 -7.394531 C 6.605469 -7.394531 6.917969 -7.121094 6.917969 -6.578125 Z M 6.917969 -2.449219 C 6.917969 -1.910156 6.605469 -1.644531 5.988281 -1.644531 L 3 -1.644531 C 2.386719 -1.644531 2.070312 -1.910156 2.070312 -2.449219 L 2.070312 -2.9375 C 2.070312 -3.402344 2.5 -3.679688 3 -3.679688 L 5.988281 -3.679688 C 6.480469 -3.679688 6.917969 -3.402344 6.917969 -2.9375 Z M 6.917969 -2.449219 "/></g></g></g><g fill="#ecf63d" fill-opacity="1"><g transform="translate(99.021328, 28.714715)"><g><path d="M 8.613281 -2.449219 C 8.613281 -3.578125 8.476562 -3.96875 7.949219 -4.519531 C 8.386719 -4.984375 8.613281 -5.5 8.613281 -6.089844 L 8.613281 -6.578125 C 8.613281 -8.011719 7.394531 -9.003906 5.988281 -9.003906 L 3 -9.003906 C 1.582031 -9.003906 0.375 -8.023438 0.375 -6.578125 C 0.375 -5.410156 0.515625 -5.046875 1.042969 -4.519531 C 0.601562 -4.042969 0.375 -3.515625 0.375 -2.9375 L 0.375 -2.449219 C 0.375 -1.015625 1.570312 -0.0117188 3 -0.0117188 L 5.988281 -0.0117188 C 7.410156 -0.0117188 8.613281 -1.03125 8.613281 -2.449219 Z M 6.917969 -6.089844 C 6.917969 -5.585938 6.605469 -5.335938 5.988281 -5.335938 L 3 -5.335938 C 2.386719 -5.335938 2.070312 -5.585938 2.070312 -6.089844 L 2.070312 -6.578125 C 2.070312 -7.121094 2.386719 -7.394531 3 -7.394531 L 5.988281 -7.394531 C 6.605469 -7.394531 6.917969 -7.121094 6.917969 -6.578125 Z M 6.917969 -2.449219 C 6.917969 -1.910156 6.605469 -1.644531 5.988281 -1.644531 L 3 -1.644531 C 2.386719 -1.644531 2.070312 -1.910156 2.070312 -2.449219 L 2.070312 -2.9375 C 2.070312 -3.402344 2.5 -3.679688 3 -3.679688 L 5.988281 -3.679688 C 6.480469 -3.679688 6.917969 -3.402344 6.917969 -2.9375 Z M 6.917969 -2.449219 "/></g></g></g><g clip-path="url(#0ac9fd98ce)"><path fill="#ecf63d" d="M 80.113281 21.402344 C 80.089844 21.414062 80.074219 21.421875 80.074219 21.421875 C 80.089844 21.414062 80.105469 21.414062 80.113281 21.402344 Z M 80.113281 21.402344 " fill-opacity="1" fill-rule="nonzero"/></g><g clip-path="url(#6360516ba7)"><path fill="#ffffff" d="M 73.675781 27.113281 C 71.953125 27.175781 56.019531 27.121094 56.019531 27.121094 L 74.558594 25.769531 C 74.558594 25.769531 74.589844 24.75 75.410156 23.96875 C 74.628906 23.726562 73.585938 23.703125 72.636719 24.316406 C 71.855469 24.8125 70.980469 24.828125 70.160156 24.433594 C 66.785156 22.835938 58.984375 19.265625 52.796875 21.53125 L 53.648438 21.636719 C 53.648438 21.636719 50.785156 23.550781 48.171875 26.628906 C 47.417969 26.566406 46.300781 26.542969 46.300781 26.542969 L 49.964844 23.496094 L 45.570312 26.660156 C 45.570312 26.660156 39.699219 26.558594 35.398438 30.882812 C 45.246094 23.058594 72.621094 32.546875 75.59375 29.195312 C 73.800781 27.136719 75.046875 27.304688 73.675781 27.113281 Z M 52.144531 25.5625 C 52.585938 25.359375 52.828125 25.230469 52.796875 25.0625 C 52.765625 24.894531 51.140625 24.121094 50.769531 25.882812 C 50.769531 26.558594 50.875 26.644531 50.9375 26.757812 C 51.003906 26.871094 50.714844 27.515625 50.714844 27.515625 C 50.714844 27.515625 50.898438 26.878906 50.664062 26.6875 C 50.464844 26.679688 49.300781 26.6875 49.300781 26.6875 C 50.117188 25.695312 52.53125 22.964844 54.957031 21.734375 C 58.078125 21.460938 62.941406 22.625 64.050781 23.308594 C 64.78125 24.324219 65.5625 24.933594 65.265625 25.214844 C 64.574219 25.375 52.335938 26.355469 52.335938 26.355469 C 52.335938 26.355469 52.644531 25.730469 52.144531 25.5625 Z M 52.144531 25.5625 " fill-opacity="1" fill-rule="nonzero"/></g></svg>