<svg width="129" height="129" viewBox="0 0 129 129" fill="none" xmlns="http://www.w3.org/2000/svg">
<path fill-rule="evenodd" clip-rule="evenodd" d="M9.55522 40.2952H15.0301L14.7263 41.2075C9.55513 57.3285 7.12197 64.6289 17.768 85.921C19.2889 89.2664 20.2012 92.613 20.2012 95.3499C19.8974 96.8708 19.5927 98.0879 18.9841 99.0002C18.3756 100.217 17.4633 100.825 16.551 101.433C15.0301 102.042 13.5092 102.65 11.3798 102.346V104.779C13.813 105.083 15.9424 104.779 17.4633 103.867C19.288 102.954 20.2013 101.737 21.1136 100.521C22.0259 99.0002 22.6344 97.1756 22.6344 95.3499C22.6344 92.3082 22.0259 88.6579 19.8964 84.7038C9.85896 64.324 11.9884 57.3283 17.1585 41.8155L17.4623 40.2946H21.1126C23.242 40.2946 24.7629 38.7737 24.7629 36.6443C24.7629 34.8196 23.5458 33.2988 21.7211 32.6903L22.6335 30.8656H28.7169V31.7779H32.0624V25.0859H28.7169V25.9982H19.288C18.3757 25.9982 17.7671 26.6068 17.4633 27.2153L15.6386 32.6902H9.55518L9.55522 40.2952ZM102.328 31.17C103.24 31.17 104.153 31.7785 104.153 32.9947C104.153 33.907 103.24 34.5156 102.328 34.5156C101.111 34.5156 100.503 33.907 100.503 32.9947C100.503 31.7777 101.112 31.17 102.328 31.17ZM96.2445 25.9989C97.1568 25.9989 98.0692 26.9112 98.0692 27.8235C98.0692 29.0406 97.1568 29.6482 96.2445 29.6482C95.3322 29.6482 94.4198 29.0397 94.4198 27.8235C94.4198 26.9112 95.3322 25.9989 96.2445 25.9989ZM89.2487 36.0363C90.4658 36.0363 91.0734 36.9487 90.7696 37.861C90.7696 39.0781 89.8573 39.6857 88.6402 39.3819C87.7279 39.3819 87.1194 38.4696 87.4232 37.2525C87.4232 36.3402 88.3355 35.7316 89.2479 36.0355L89.2487 36.0363ZM88.9449 22.6523C89.8573 22.6523 90.7696 23.2608 90.7696 24.477C90.7696 25.3893 89.8573 26.3017 88.9449 26.3017C88.0326 26.3017 87.1202 25.3893 87.1202 24.477C87.1202 23.26 88.0326 22.6523 88.9449 22.6523ZM82.5577 32.386C83.4701 32.6899 84.0786 33.6031 83.7747 34.5154C83.7747 35.4278 82.8624 36.0363 81.9501 36.0363C80.733 35.7325 80.1254 34.8193 80.4292 33.9069C80.4292 32.9946 81.3415 32.386 82.5586 32.386H82.5577ZM81.6454 20.2191C82.5577 20.2191 83.4701 21.1315 83.4701 22.0438C83.4701 22.9562 82.5577 23.8685 81.6454 23.8685C80.733 23.8685 79.8207 22.9562 79.8207 22.0438C79.8207 21.1315 80.733 20.2191 81.6454 20.2191ZM75.2582 29.9529C76.1705 29.9529 76.779 30.8652 76.779 31.7776C76.4752 32.9946 75.562 33.6023 74.6497 33.2984C73.7373 33.2984 73.1288 32.3861 73.1288 31.1691C73.4326 30.2567 74.3458 29.6482 75.2582 29.952V29.9529ZM74.0411 19.0031C74.9535 19.0031 75.8658 19.6116 75.8658 20.8278C75.8658 21.7401 74.9535 22.3486 74.0411 22.3486C73.1288 22.3486 72.2164 21.7401 72.2164 20.8278C72.2164 19.6107 73.1288 19.0031 74.0411 19.0031ZM66.4368 37.5572C67.3492 37.861 67.9577 38.7742 67.6539 39.6866C67.6539 39.9904 67.35 39.9904 67.35 40.2951H91.6839C95.9427 40.2951 100.809 43.3368 102.33 46.3786C104.459 50.3326 106.589 54.2866 109.022 58.2417H116.626C118.147 58.2417 119.668 59.7626 119.668 61.2835V63.7166C119.668 66.1498 117.539 67.9755 115.105 67.9755H114.497L115.105 69.4964C118.147 74.6675 119.972 90.7885 114.802 98.697V107.214C114.802 109.038 113.585 110.255 111.76 110.255H107.197C105.676 110.255 104.156 109.038 104.156 107.214V103.26H40.8875V107.214C40.8875 109.038 39.3667 110.255 37.8458 110.255H33.2832C31.4585 110.255 30.2415 109.038 30.2415 107.214V99.3055C24.4618 91.7012 26.2875 74.9717 29.633 69.4966L30.2415 67.9757H29.633C27.1998 67.9757 25.0704 66.151 25.0704 63.7169V61.2837C25.0704 59.7628 26.5912 58.242 28.1121 58.242H35.7164C38.1496 54.2879 40.279 50.3339 42.4085 46.3788C43.9293 43.3371 48.4919 40.2953 53.0545 40.2953H64.6129C64.0043 39.6868 64.0043 39.0783 64.309 38.4706C64.6129 37.5583 65.5261 37.2536 66.4384 37.5583L66.4368 37.5572ZM67.9577 27.8235C68.87 28.1273 69.4785 29.0405 69.4785 29.9528C69.1747 30.8652 68.2615 31.7775 67.3492 31.4737C66.4368 31.1699 65.8283 30.2567 65.8283 29.3443C66.1321 28.432 67.0453 27.8235 67.9577 27.8235ZM66.4368 18.3945C67.6539 18.3945 68.2615 19.0031 68.2615 20.2192C68.2615 21.1316 67.653 21.7401 66.4368 21.7401C65.5245 21.7401 64.916 21.1316 64.916 20.2192C64.916 19.0022 65.5245 18.3945 66.4368 18.3945ZM59.4411 35.124C60.3534 35.4279 60.6581 36.3411 60.3534 37.2534C60.0496 38.1658 59.1364 38.7743 58.224 38.4705C57.3117 38.1666 56.7032 36.9496 57.007 36.0373C57.3108 35.125 58.5278 34.8203 59.4401 35.125L59.4411 35.124ZM60.3534 26.6074C61.5704 26.9112 62.1781 27.8245 61.8743 28.7368C61.8743 29.6491 60.9619 30.5615 59.7449 30.2577C58.8325 29.9538 58.224 29.0406 58.5278 28.1283C58.5278 27.2159 59.4402 26.6074 60.3525 26.6074H60.3534ZM59.1364 18.3945C60.0487 18.3945 60.6572 19.3069 60.6572 20.2192C60.6572 21.1316 60.0487 22.0439 59.1364 22.0439C57.9193 22.0439 57.3117 21.1316 57.3117 20.2192C57.3117 19.3069 57.9202 18.3945 59.1364 18.3945ZM51.8358 33.2994C52.7481 33.6033 53.3566 34.5165 53.0528 35.4288C52.749 36.3412 51.8358 36.9497 50.6196 36.6459C49.7073 36.342 49.4026 35.125 49.7073 34.2127C50.0111 33.3004 50.9243 32.9957 51.8367 33.3004L51.8358 33.2994ZM53.0528 26.3037C53.9652 26.3037 54.5737 27.216 54.2699 28.1284C54.2699 29.3454 53.3575 29.9531 52.4452 29.6492C51.2281 29.6492 50.6205 28.7369 50.9243 27.8245C50.9243 26.6075 51.8366 25.9999 53.0537 26.3037H53.0528ZM51.5319 19.0031C52.4443 19.0031 53.3566 19.9154 53.3566 20.8278C53.3566 21.7401 52.4443 22.6525 51.5319 22.6525C50.3149 22.6525 49.7073 21.7401 49.7073 20.8278C49.7073 19.9154 50.3158 19.0031 51.5319 19.0031ZM44.5362 31.4737C45.4485 31.7776 46.0571 32.6908 45.7532 33.6031C45.4494 34.5155 44.5362 35.124 43.3201 34.8202C42.4077 34.5163 42.103 33.2993 42.4077 32.387C42.7115 31.4747 43.6248 31.17 44.5371 31.4747L44.5362 31.4737ZM45.1447 25.9989C46.0571 25.9989 46.6656 26.9112 46.6656 27.8235C46.3617 29.0406 45.4485 29.6482 44.5362 29.3444C43.6238 29.3444 43.0153 28.4321 43.0153 27.215C43.3191 26.3027 44.2324 25.6942 45.1447 25.998V25.9989ZM43.9277 20.524C45.1447 20.524 45.7524 21.4363 45.7524 22.3486C45.7524 23.261 45.1438 24.1733 43.9277 24.1733C43.0153 24.1733 42.4068 23.261 42.4068 22.3486C42.4068 21.4363 43.0153 20.524 43.9277 20.524ZM36.9319 29.3454C37.8443 29.3454 38.4528 30.2578 38.4528 31.1701C38.149 32.3871 37.2357 32.9948 36.3234 32.691C35.411 32.691 34.8025 31.7786 34.8025 30.5616C35.1064 29.6492 36.0196 29.0407 36.9319 29.3445V29.3454ZM36.6281 22.9582C37.5404 22.9582 38.4528 23.8706 38.4528 24.7829C38.4528 25.6952 37.5404 26.6076 36.6281 26.6076C35.7157 26.6076 34.8034 25.6952 34.8034 24.7829C34.8034 23.8706 35.7157 22.9582 36.6281 22.9582ZM64.9162 55.8089H66.7409C67.0447 53.9842 67.9579 52.4634 69.174 50.9426C70.6949 49.4217 72.8243 48.5094 74.9537 48.5094C76.4746 48.5094 77.9955 49.1179 79.2126 49.7264C80.1249 50.3349 81.0373 51.2473 81.6458 51.8558C82.2543 51.552 83.1666 51.2473 83.7751 50.9435C84.9922 50.6396 86.5131 50.3349 87.7292 50.3349C90.4672 50.3349 92.9003 51.2473 94.7249 52.7681C96.2458 53.9851 97.7667 55.8098 98.3752 57.6344H98.6791C99.8961 57.6344 100.808 57.9383 101.721 58.243L97.7668 48.814C96.8544 46.9893 92.9004 45.4686 91.6833 45.4686H53.0533C51.5325 45.4686 47.8822 46.9894 46.6661 48.814L39.0618 68.2815H57.0084C56.3999 67.0645 56.0961 65.8484 56.0961 64.6312C56.0961 62.1981 57.3131 60.0687 58.8341 58.244C60.355 56.7232 62.4844 55.8109 64.9176 55.8109L64.9162 55.8089ZM66.1332 58.2421H64.9162C63.3953 58.2421 61.5707 58.8506 60.6573 60.0667C59.4403 61.2838 58.8326 62.8047 58.8326 64.6293C58.8326 66.454 59.4411 67.9748 60.6573 69.1919C61.5697 70.1043 63.3953 71.0166 64.9162 71.0166H98.6794C100.2 71.0166 101.721 70.4081 102.633 69.4958C103.546 68.2787 104.154 67.0626 104.154 65.5417C104.154 64.0209 103.546 62.8037 102.633 61.8914C101.721 60.9791 100.2 60.3706 98.6794 60.3706H98.3755H97.767L96.55 60.6744L96.2461 59.4573C95.9423 57.6327 94.7253 55.8071 93.2044 54.591C91.6836 53.374 89.859 52.7663 87.7295 52.7663C86.8172 52.7663 85.6001 53.0702 84.6878 53.3748C83.7755 53.6787 82.8631 54.2872 82.2546 54.8957L80.7338 55.8081L80.1252 54.2872C79.8214 53.3748 78.9082 52.4625 77.9959 52.1578C77.0835 51.5493 76.1712 51.2455 74.9541 51.2455C73.4333 51.2455 71.9124 51.854 71.0001 52.7663C69.7831 53.9834 69.1754 55.1995 69.1754 57.0252V57.329L69.4792 59.4584L67.3499 58.8499C67.046 58.546 66.7413 58.546 66.1328 58.2414L66.1332 58.2421ZM58.8326 88.6593H85.904C86.8164 88.6593 87.4249 89.5717 87.4249 90.484C87.4249 91.3964 86.8164 92.0049 85.904 92.0049H58.8326C57.9203 92.0049 57.3118 91.3964 57.3118 90.484C57.3118 89.5717 57.9203 88.6593 58.8326 88.6593ZM102.938 78.9256C99.5922 78.9256 96.2457 81.6636 95.3334 85.009C94.421 88.3545 96.2457 91.0925 99.5922 91.0925C102.938 91.0925 106.588 88.3545 107.5 85.009C108.413 81.6636 106.283 78.9256 102.938 78.9256ZM41.4948 78.9256C44.8402 78.9256 48.4905 81.6636 49.4028 85.009C50.3152 88.3545 48.4905 91.0925 45.144 91.0925C41.7985 91.0925 38.1482 88.3545 37.2359 85.009C36.3236 81.6636 38.1483 78.9256 41.4948 78.9256Z" fill="#121212"/>
</svg>
